<?xml version="1.0" encoding="utf-8"?>
<!-- Generator: Adobe Illustrator 15.1.0, SVG Export Plug-In . SVG Version: 6.00 Build 0)  -->
<!DOCTYPE svg PUBLIC "-//W3C//DTD SVG 1.1//EN" "http://www.w3.org/Graphics/SVG/1.1/DTD/svg11.dtd">
<svg version="1.1" xmlns="http://www.w3.org/2000/svg" xmlns:xlink="http://www.w3.org/1999/xlink" x="0px" y="0px" width="1500px"
	 height="800px" viewBox="0 0 1500 800" enable-background="new 0 0 1500 800" xml:space="preserve">
<g id="Layer_1" display="none">
	<g display="inline">
		<g>
			<path fill="#767676" d="M379.213,500.326v27.288c-3.834,2.712-7.92,4.792-12.261,6.239c-4.34,1.445-9.222,2.17-14.647,2.17
				c-6.075,0-11.537-0.932-16.383-2.795c-4.848-1.861-8.979-4.502-12.396-7.92s-6.04-7.549-7.866-12.396
				c-1.827-4.846-2.739-10.234-2.739-16.166s0.895-11.312,2.685-16.14c1.791-4.828,4.358-8.951,7.704-12.369
				c3.345-3.417,7.387-6.058,12.125-7.921c4.737-1.861,10.071-2.793,16.004-2.793c2.929,0,5.632,0.199,8.11,0.596
				c2.477,0.398,4.782,0.986,6.916,1.764c2.134,0.778,4.123,1.736,5.968,2.875c1.845,1.14,3.616,2.451,5.316,3.934l-1.519,2.387
				c-0.507,0.868-1.267,1.067-2.278,0.597c-0.543-0.217-1.321-0.723-2.333-1.519c-1.013-0.795-2.406-1.628-4.178-2.496
				c-1.772-0.867-3.97-1.645-6.591-2.332c-2.623-0.688-5.814-1.031-9.575-1.031c-4.991,0-9.503,0.796-13.535,2.387
				c-4.033,1.592-7.469,3.871-10.308,6.836c-2.84,2.966-5.027,6.583-6.564,10.85c-1.538,4.269-2.306,9.061-2.306,14.377
				c0,5.389,0.768,10.235,2.306,14.539c1.537,4.305,3.761,7.957,6.673,10.958c2.911,3.003,6.446,5.299,10.605,6.89
				c4.159,1.592,8.843,2.387,14.051,2.387c2.278,0,4.385-0.144,6.32-0.434c1.935-0.289,3.779-0.695,5.533-1.221
				c1.754-0.523,3.454-1.175,5.1-1.953c1.646-0.777,3.318-1.654,5.019-2.631v-20.67h-14.702c-0.398,0-0.732-0.125-1.004-0.379
				c-0.271-0.253-0.406-0.543-0.406-0.868v-3.038H379.213z"/>
			<path fill="#767676" d="M396.355,506.022v1.03c0,4.051,0.47,7.614,1.411,10.688c0.939,3.074,2.278,5.652,4.014,7.73
				c1.736,2.08,3.834,3.645,6.294,4.693c2.459,1.049,5.208,1.572,8.245,1.572c2.713,0,5.063-0.298,7.053-0.895
				s3.662-1.266,5.019-2.008c1.356-0.74,2.432-1.41,3.228-2.006c0.795-0.598,1.374-0.896,1.736-0.896
				c0.47,0,0.831,0.182,1.085,0.543l1.41,1.736c-0.868,1.085-2.017,2.098-3.444,3.038c-1.43,0.94-3.021,1.745-4.774,2.414
				c-1.755,0.669-3.635,1.202-5.642,1.601c-2.008,0.396-4.024,0.596-6.049,0.596c-3.689,0-7.053-0.643-10.091-1.926
				s-5.643-3.154-7.813-5.614c-2.17-2.459-3.843-5.47-5.018-9.032c-1.176-3.563-1.764-7.641-1.764-12.234
				c0-3.869,0.552-7.439,1.655-10.714c1.103-3.272,2.693-6.094,4.773-8.463c2.08-2.368,4.629-4.222,7.649-5.561
				c3.02-1.338,6.446-2.007,10.28-2.007c3.038,0,5.859,0.523,8.463,1.572c2.604,1.05,4.864,2.577,6.781,4.584
				c1.917,2.008,3.427,4.477,4.53,7.406c1.103,2.929,1.654,6.293,1.654,10.09c0,0.796-0.108,1.338-0.325,1.627
				c-0.217,0.291-0.579,0.435-1.085,0.435H396.355z M432.378,502.713c0-2.893-0.407-5.487-1.221-7.785
				c-0.813-2.295-1.963-4.239-3.445-5.831c-1.483-1.591-3.246-2.812-5.289-3.662c-2.044-0.849-4.295-1.274-6.754-1.274
				c-2.785,0-5.281,0.434-7.486,1.302c-2.207,0.868-4.115,2.116-5.724,3.743c-1.609,1.627-2.902,3.58-3.879,5.859
				c-0.977,2.278-1.628,4.828-1.953,7.648H432.378z"/>
			<path fill="#767676" d="M472.469,480.309c3.869,0,7.332,0.66,10.389,1.979c3.056,1.321,5.633,3.192,7.73,5.614
				c2.098,2.424,3.698,5.344,4.802,8.762c1.103,3.418,1.654,7.242,1.654,11.475c0,4.23-0.552,8.047-1.654,11.446
				c-1.104,3.399-2.704,6.312-4.802,8.734s-4.675,4.286-7.73,5.588c-3.057,1.302-6.52,1.952-10.389,1.952
				c-3.87,0-7.333-0.65-10.389-1.952c-3.057-1.302-5.643-3.165-7.758-5.588c-2.116-2.423-3.726-5.335-4.828-8.734
				c-1.104-3.399-1.655-7.216-1.655-11.446c0-4.232,0.552-8.057,1.655-11.475c1.103-3.418,2.712-6.338,4.828-8.762
				c2.115-2.422,4.701-4.293,7.758-5.614C465.136,480.969,468.599,480.309,472.469,480.309z M472.469,531.791
				c3.219,0,6.03-0.551,8.436-1.654s4.412-2.686,6.022-4.747c1.608-2.062,2.812-4.548,3.607-7.46
				c0.795-2.91,1.193-6.174,1.193-9.791c0-3.581-0.398-6.836-1.193-9.766c-0.796-2.93-1.999-5.434-3.607-7.514
				c-1.61-2.079-3.617-3.68-6.022-4.801s-5.217-1.682-8.436-1.682c-3.22,0-6.031,0.561-8.436,1.682
				c-2.406,1.121-4.413,2.722-6.022,4.801c-1.609,2.08-2.82,4.584-3.635,7.514c-0.813,2.93-1.22,6.185-1.22,9.766
				c0,3.617,0.406,6.881,1.22,9.791c0.814,2.912,2.025,5.398,3.635,7.46s3.616,3.644,6.022,4.747
				C466.438,531.24,469.249,531.791,472.469,531.791z"/>
			<path fill="#767676" d="M516.574,494.195c0.831-2.205,1.78-4.167,2.848-5.885c1.066-1.718,2.297-3.174,3.689-4.367
				c1.392-1.193,2.947-2.107,4.665-2.74s3.626-0.949,5.724-0.949c1.12,0,2.225,0.1,3.31,0.299s2.043,0.551,2.875,1.057l-0.435,3.581
				c-0.181,0.579-0.524,0.868-1.03,0.868c-0.434,0-1.095-0.127-1.98-0.38c-0.887-0.253-2.053-0.38-3.499-0.38
				c-2.098,0-3.951,0.317-5.561,0.949c-1.609,0.634-3.057,1.583-4.34,2.849c-1.284,1.267-2.405,2.83-3.363,4.692
				c-0.959,1.863-1.836,4.006-2.631,6.429v34.937h-5.208v-53.979h2.767c0.614,0,1.048,0.127,1.302,0.38
				c0.253,0.253,0.415,0.688,0.488,1.302L516.574,494.195z"/>
			<path fill="#767676" d="M591.385,483.563v1.791c0,0.796-0.507,1.284-1.52,1.465l-8.246,0.596
				c1.013,1.375,1.791,2.912,2.333,4.611c0.543,1.701,0.813,3.545,0.813,5.534c0,2.604-0.461,4.964-1.383,7.079
				c-0.923,2.116-2.225,3.926-3.906,5.426c-1.682,1.501-3.708,2.668-6.076,3.499c-2.369,0.832-4.982,1.247-7.839,1.247
				c-3.074,0-5.878-0.469-8.409-1.41c-1.519,0.868-2.722,1.891-3.607,3.065c-0.887,1.176-1.329,2.342-1.329,3.499
				c0,1.555,0.551,2.749,1.654,3.58c1.104,0.832,2.55,1.438,4.341,1.818c1.79,0.379,3.833,0.623,6.13,0.732
				c2.296,0.107,4.639,0.226,7.025,0.352c2.387,0.127,4.729,0.354,7.025,0.679c2.296,0.325,4.34,0.896,6.13,1.708
				c1.791,0.814,3.236,1.953,4.341,3.418c1.103,1.465,1.654,3.408,1.654,5.832c0,2.242-0.562,4.395-1.682,6.456
				c-1.122,2.062-2.74,3.888-4.855,5.479c-2.116,1.591-4.675,2.865-7.677,3.824c-3.002,0.958-6.365,1.438-10.09,1.438
				c-3.798,0-7.126-0.389-9.982-1.166c-2.857-0.778-5.254-1.826-7.188-3.146s-3.391-2.848-4.367-4.584s-1.464-3.58-1.464-5.533
				c0-2.857,0.939-5.309,2.82-7.352c1.88-2.043,4.448-3.643,7.704-4.801c-1.81-0.615-3.265-1.51-4.367-2.686
				c-1.104-1.175-1.655-2.775-1.655-4.801c0-0.76,0.145-1.555,0.435-2.387c0.289-0.832,0.723-1.655,1.302-2.469
				c0.578-0.814,1.283-1.582,2.116-2.306c0.831-0.724,1.771-1.374,2.82-1.953c-2.568-1.482-4.566-3.454-5.994-5.913
				c-1.43-2.459-2.144-5.334-2.144-8.626c0-2.604,0.462-4.964,1.384-7.079c0.922-2.116,2.232-3.934,3.934-5.453
				c1.699-1.519,3.733-2.693,6.103-3.525c2.368-0.832,5-1.248,7.894-1.248c2.387,0,4.584,0.289,6.591,0.867
				c2.008,0.58,3.807,1.394,5.398,2.441H591.385z M585.742,538.789c0-1.699-0.443-3.064-1.329-4.096
				c-0.887-1.03-2.07-1.835-3.553-2.414c-1.483-0.578-3.192-0.984-5.127-1.221c-1.936-0.234-3.96-0.406-6.076-0.516
				c-2.115-0.107-4.241-0.217-6.374-0.324c-2.135-0.109-4.142-0.326-6.022-0.652c-1.374,0.543-2.64,1.167-3.797,1.872
				c-1.158,0.706-2.152,1.511-2.984,2.415s-1.483,1.889-1.952,2.956c-0.471,1.066-0.706,2.215-0.706,3.444
				c0,1.592,0.407,3.065,1.221,4.422c0.814,1.355,2.008,2.531,3.581,3.526c1.573,0.994,3.499,1.78,5.777,2.36
				c2.278,0.577,4.9,0.867,7.866,0.867c2.748,0,5.308-0.308,7.677-0.922c2.368-0.615,4.43-1.484,6.185-2.604
				c1.754-1.121,3.128-2.46,4.123-4.015C585.245,542.334,585.742,540.635,585.742,538.789z M565.562,511.285
				c2.314,0,4.376-0.334,6.185-1.004c1.808-0.669,3.327-1.601,4.557-2.794s2.17-2.622,2.821-4.286
				c0.651-1.662,0.977-3.508,0.977-5.533s-0.335-3.879-1.004-5.561c-0.67-1.682-1.627-3.119-2.875-4.313s-2.767-2.116-4.557-2.768
				c-1.791-0.65-3.825-0.977-6.104-0.977s-4.313,0.326-6.104,0.977c-1.79,0.651-3.309,1.574-4.557,2.768s-2.197,2.631-2.849,4.313
				c-0.65,1.682-0.976,3.535-0.976,5.561s0.325,3.871,0.976,5.533c0.651,1.664,1.601,3.093,2.849,4.286s2.767,2.125,4.557,2.794
				C561.249,510.951,563.283,511.285,565.562,511.285z"/>
			<path fill="#767676" d="M604.459,506.022v1.03c0,4.051,0.47,7.614,1.411,10.688c0.939,3.074,2.278,5.652,4.014,7.73
				c1.736,2.08,3.834,3.645,6.294,4.693c2.459,1.049,5.208,1.572,8.245,1.572c2.713,0,5.063-0.298,7.053-0.895
				s3.662-1.266,5.019-2.008c1.356-0.74,2.432-1.41,3.228-2.006c0.795-0.598,1.374-0.896,1.736-0.896
				c0.47,0,0.831,0.182,1.085,0.543l1.41,1.736c-0.868,1.085-2.017,2.098-3.444,3.038c-1.43,0.94-3.021,1.745-4.774,2.414
				c-1.755,0.669-3.635,1.202-5.642,1.601c-2.008,0.396-4.024,0.596-6.049,0.596c-3.689,0-7.053-0.643-10.091-1.926
				s-5.643-3.154-7.813-5.614c-2.17-2.459-3.843-5.47-5.018-9.032c-1.176-3.563-1.764-7.641-1.764-12.234
				c0-3.869,0.552-7.439,1.655-10.714c1.103-3.272,2.693-6.094,4.773-8.463c2.08-2.368,4.629-4.222,7.649-5.561
				c3.02-1.338,6.446-2.007,10.28-2.007c3.038,0,5.859,0.523,8.463,1.572c2.604,1.05,4.864,2.577,6.781,4.584
				c1.917,2.008,3.427,4.477,4.53,7.406c1.103,2.929,1.654,6.293,1.654,10.09c0,0.796-0.108,1.338-0.325,1.627
				c-0.217,0.291-0.579,0.435-1.085,0.435H604.459z M640.481,502.713c0-2.893-0.407-5.487-1.221-7.785
				c-0.813-2.295-1.963-4.239-3.445-5.831c-1.483-1.591-3.246-2.812-5.289-3.662c-2.044-0.849-4.295-1.274-6.754-1.274
				c-2.785,0-5.281,0.434-7.486,1.302c-2.207,0.868-4.115,2.116-5.724,3.743c-1.609,1.627-2.902,3.58-3.879,5.859
				c-0.977,2.278-1.628,4.828-1.953,7.648H640.481z"/>
			<path fill="#767676" d="M737.752,463.111H710.79v72.043h-5.588v-72.043h-27.125v-4.721h59.675V463.111z"/>
			<path fill="#767676" d="M756.089,480.309c3.869,0,7.332,0.66,10.389,1.979c3.056,1.321,5.633,3.192,7.73,5.614
				c2.098,2.424,3.698,5.344,4.802,8.762c1.103,3.418,1.654,7.242,1.654,11.475c0,4.23-0.552,8.047-1.654,11.446
				c-1.104,3.399-2.704,6.312-4.802,8.734s-4.675,4.286-7.73,5.588c-3.057,1.302-6.52,1.952-10.389,1.952
				c-3.87,0-7.333-0.65-10.389-1.952c-3.057-1.302-5.643-3.165-7.758-5.588c-2.116-2.423-3.726-5.335-4.828-8.734
				c-1.104-3.399-1.655-7.216-1.655-11.446c0-4.232,0.552-8.057,1.655-11.475c1.103-3.418,2.712-6.338,4.828-8.762
				c2.115-2.422,4.701-4.293,7.758-5.614C748.756,480.969,752.219,480.309,756.089,480.309z M756.089,531.791
				c3.219,0,6.03-0.551,8.436-1.654s4.412-2.686,6.022-4.747c1.608-2.062,2.812-4.548,3.607-7.46
				c0.795-2.91,1.193-6.174,1.193-9.791c0-3.581-0.398-6.836-1.193-9.766c-0.796-2.93-1.999-5.434-3.607-7.514
				c-1.61-2.079-3.617-3.68-6.022-4.801s-5.217-1.682-8.436-1.682c-3.22,0-6.031,0.561-8.436,1.682
				c-2.406,1.121-4.413,2.722-6.022,4.801c-1.609,2.08-2.82,4.584-3.635,7.514c-0.813,2.93-1.22,6.185-1.22,9.766
				c0,3.617,0.406,6.881,1.22,9.791c0.814,2.912,2.025,5.398,3.635,7.46s3.616,3.644,6.022,4.747
				C750.058,531.24,752.869,531.791,756.089,531.791z"/>
			<path fill="#767676" d="M865.945,481.176l-18.011,53.979h-3.852c-0.615,0-1.031-0.379-1.248-1.139l-14.756-43.834
				c-0.182-0.543-0.344-1.085-0.488-1.627c-0.145-0.543-0.271-1.086-0.38-1.628c-0.181,1.085-0.452,2.17-0.813,3.255l-14.973,43.834
				c-0.218,0.76-0.651,1.139-1.303,1.139h-3.688l-18.011-53.979h3.905c0.507,0,0.923,0.136,1.248,0.407
				c0.325,0.271,0.543,0.569,0.651,0.896l13.616,42.586c0.217,0.832,0.416,1.637,0.597,2.414s0.326,1.546,0.435,2.306
				c0.217-0.76,0.434-1.528,0.65-2.306c0.218-0.777,0.47-1.582,0.76-2.414l14.431-42.967c0.253-0.795,0.76-1.193,1.519-1.193h2.116
				c0.795,0,1.319,0.398,1.573,1.193l14.322,42.967c0.252,0.832,0.488,1.627,0.705,2.387s0.415,1.52,0.597,2.279
				c0.144-0.76,0.298-1.52,0.461-2.279s0.37-1.555,0.624-2.387l13.726-42.586c0.144-0.398,0.379-0.715,0.705-0.949
				c0.325-0.235,0.705-0.354,1.139-0.354H865.945z"/>
			<path fill="#767676" d="M882.492,490.615c2.495-3.109,5.379-5.605,8.652-7.486c3.273-1.88,6.917-2.82,10.932-2.82
				c2.965,0,5.578,0.47,7.839,1.41c2.26,0.941,4.132,2.297,5.615,4.068c1.482,1.772,2.604,3.906,3.363,6.402
				c0.76,2.494,1.14,5.316,1.14,8.463v34.502h-5.208v-34.502c0-5.063-1.158-9.033-3.473-11.908s-5.841-4.313-10.578-4.313
				c-3.509,0-6.791,0.895-9.847,2.685c-3.057,1.79-5.777,4.277-8.164,7.46v40.578h-5.208v-53.979h2.875
				c0.903,0,1.428,0.453,1.573,1.356L882.492,490.615z"/>
			<path fill="#767676" d="M1011.715,530.272c0.578,0,1.03,0.172,1.355,0.515c0.326,0.345,0.488,0.787,0.488,1.33v3.037h-49.53
				v-1.844c0-0.398,0.1-0.805,0.299-1.221c0.198-0.416,0.461-0.768,0.787-1.059l26.202-26.527c2.17-2.206,4.178-4.34,6.021-6.402
				c1.845-2.061,3.445-4.141,4.802-6.238s2.414-4.25,3.174-6.455c0.759-2.206,1.139-4.558,1.139-7.053
				c0-2.821-0.471-5.271-1.41-7.352c-0.941-2.079-2.188-3.788-3.743-5.127c-1.556-1.337-3.364-2.332-5.425-2.983
				c-2.062-0.651-4.196-0.976-6.402-0.976c-2.423,0-4.656,0.371-6.699,1.111c-2.044,0.742-3.852,1.772-5.426,3.092
				c-1.573,1.321-2.875,2.895-3.905,4.721c-1.031,1.826-1.745,3.824-2.144,5.994c-0.253,0.796-0.588,1.32-1.003,1.573
				c-0.416,0.253-0.986,0.345-1.709,0.271l-2.658-0.435c0.47-3.29,1.374-6.22,2.712-8.788c1.338-2.567,3.038-4.737,5.1-6.51
				s4.449-3.12,7.161-4.042c2.713-0.922,5.643-1.383,8.789-1.383c2.929,0,5.723,0.426,8.381,1.274
				c2.658,0.851,5.009,2.134,7.053,3.853c2.043,1.717,3.662,3.869,4.855,6.455s1.79,5.615,1.79,9.087
				c0,2.894-0.443,5.579-1.329,8.056c-0.887,2.479-2.089,4.855-3.607,7.135c-1.519,2.277-3.282,4.494-5.289,6.645
				c-2.008,2.152-4.115,4.35-6.32,6.592l-24.033,24.521c1.157-0.289,2.36-0.506,3.608-0.651c1.247-0.144,2.504-0.217,3.77-0.217
				H1011.715z"/>
			<path fill="#767676" d="M1079.688,496.746c0,6.727-0.724,12.551-2.17,17.469c-1.447,4.918-3.418,8.987-5.913,12.205
				c-2.496,3.221-5.417,5.615-8.762,7.189c-3.346,1.572-6.917,2.359-10.714,2.359c-3.798,0-7.36-0.787-10.688-2.359
				c-3.328-1.574-6.239-3.969-8.734-7.189c-2.495-3.218-4.458-7.287-5.886-12.205c-1.43-4.918-2.144-10.742-2.144-17.469
				c0-6.728,0.714-12.55,2.144-17.469c1.428-4.918,3.391-8.986,5.886-12.207c2.495-3.218,5.406-5.614,8.734-7.188
				c3.327-1.573,6.89-2.359,10.688-2.359c3.797,0,7.368,0.786,10.714,2.359c3.345,1.573,6.266,3.97,8.762,7.188
				c2.495,3.221,4.466,7.289,5.913,12.207C1078.965,484.196,1079.688,490.019,1079.688,496.746z M1074.264,496.746
				c0-6.221-0.597-11.537-1.79-15.949c-1.194-4.412-2.794-8.021-4.802-10.823c-2.007-2.803-4.358-4.855-7.053-6.157
				c-2.694-1.303-5.524-1.953-8.489-1.953c-2.967,0-5.787,0.65-8.464,1.953c-2.677,1.302-5.027,3.354-7.052,6.157
				c-2.026,2.803-3.635,6.411-4.828,10.823c-1.194,4.412-1.791,9.729-1.791,15.949c0,6.258,0.597,11.582,1.791,15.977
				c1.193,4.395,2.802,7.993,4.828,10.795c2.024,2.804,4.375,4.848,7.052,6.131c2.677,1.284,5.497,1.926,8.464,1.926
				c2.965,0,5.795-0.642,8.489-1.926c2.694-1.283,5.046-3.327,7.053-6.131c2.008-2.802,3.607-6.4,4.802-10.795
				C1073.667,508.328,1074.264,503.004,1074.264,496.746z"/>
			<path fill="#767676" d="M1137.734,531.141v4.014h-39.603v-4.014h17.632v-62.279c0-1.229,0.054-2.531,0.162-3.906L1099,479.982
				c-0.507,0.434-1.013,0.597-1.519,0.488c-0.507-0.108-0.904-0.325-1.193-0.65l-1.573-2.17l22.188-19.585h4.069v73.075H1137.734z"
				/>
			<path fill="#767676" d="M1204.461,458.391v2.333c0,0.616-0.073,1.149-0.217,1.601c-0.146,0.453-0.308,0.841-0.488,1.166
				l-35.154,69.711c-0.29,0.58-0.678,1.05-1.166,1.411c-0.488,0.362-1.131,0.542-1.926,0.542h-3.581l35.479-69.439
				c0.47-0.939,1.031-1.791,1.682-2.55h-44.268c-0.398,0-0.742-0.144-1.031-0.435c-0.289-0.289-0.434-0.632-0.434-1.03v-3.31
				H1204.461z"/>
		</g>
		<polygon fill="#FFC107" points="258.871,394.875 247.897,375.89 221.552,421.438 244.108,421.438 259.172,395.393 		"/>
		<polygon fill="#0F9D58" points="236.025,355.365 247.897,375.89 221.551,421.439 197.807,421.439 		"/>
		<polygon fill="#4285F4" points="221.551,289.292 197.807,289.292 259.172,395.393 271.035,374.877 271.045,374.856 		"/>
		<path fill="#DB4437" d="M278.735,361.558c2.222-3.83,2.222-8.557,0-12.388l-34.626-59.879h-22.559l49.494,85.566L278.735,361.558z
			"/>
		<path fill="#777777" d="M311.572,402.35v-91.077h27.856c13.908,0,25.079,4.198,33.519,12.593
			c8.437,8.395,12.656,19.379,12.656,32.946c0,13.654-4.22,24.657-12.656,33.009c-8.439,8.353-19.61,12.529-33.519,12.529H311.572z
			 M323.275,322.467v68.689h16.153c10.601,0,18.953-3.031,25.06-9.095c6.104-6.062,9.158-14.479,9.158-25.249
			c0-10.685-3.054-19.081-9.158-25.186c-6.106-6.106-14.459-9.159-25.06-9.159H323.275z"/>
		<path fill="#777777" d="M423.508,404.385c-9.158,0-16.707-3.137-22.641-9.413c-5.938-6.275-8.905-14.203-8.905-23.787
			c0-9.496,2.882-17.405,8.649-23.723c5.767-6.317,13.144-9.477,22.135-9.477c9.242,0,16.6,2.989,22.068,8.968
			c5.471,5.978,8.205,14.354,8.205,25.123l-0.127,1.271h-48.974c0.169,6.106,2.204,11.025,6.106,14.756
			c3.898,3.732,8.563,5.597,13.992,5.597c7.461,0,13.313-3.731,17.553-11.194l10.431,5.088c-2.797,5.259-6.677,9.371-11.638,12.338
			C435.402,402.9,429.783,404.385,423.508,404.385 M404.811,363.68h35.742c-0.34-4.325-2.098-7.906-5.277-10.749
			c-3.182-2.84-7.442-4.261-12.784-4.261c-4.41,0-8.204,1.358-11.386,4.071C407.926,355.456,405.828,359.101,404.811,363.68"/>
		<polygon fill="#777777" points="492.707,402.35 481.004,402.35 455.817,340.021 468.537,340.021 486.854,388.358 487.109,388.358 
			505.682,340.021 518.146,340.021 		"/>
		<polygon fill="#777777" points="539.516,363.299 539.516,402.35 527.813,402.35 527.813,311.273 580.982,311.273 580.982,322.467 
			539.516,322.467 539.516,352.36 576.912,352.36 576.912,363.299 		"/>
		<path fill="#777777" d="M616.344,404.385c-9.158,0-16.707-3.137-22.642-9.413c-5.937-6.275-8.905-14.203-8.905-23.787
			c0-9.496,2.883-17.405,8.65-23.723c5.766-6.317,13.143-9.477,22.134-9.477c9.241,0,16.599,2.989,22.069,8.968
			c5.47,5.978,8.203,14.354,8.203,25.123l-0.127,1.271h-48.973c0.169,6.106,2.204,11.025,6.105,14.756
			c3.899,3.732,8.564,5.597,13.992,5.597c7.463,0,13.313-3.731,17.555-11.194l10.43,5.088c-2.797,5.259-6.677,9.371-11.639,12.338
			C628.236,402.9,622.618,404.385,616.344,404.385 M597.645,363.68h35.744c-0.341-4.325-2.099-7.906-5.279-10.749
			c-3.18-2.84-7.441-4.261-12.783-4.261c-4.41,0-8.204,1.358-11.385,4.071C600.762,355.456,598.663,359.101,597.645,363.68"/>
		<path fill="#777777" d="M704.875,385.05c0,5.428-2.375,10.007-7.125,13.738c-4.75,3.729-10.729,5.596-17.935,5.596
			c-6.276,0-11.788-1.633-16.537-4.896c-4.75-3.264-8.14-7.569-10.175-12.912l10.43-4.452c1.527,3.733,3.754,6.636,6.678,8.714
			c2.927,2.079,6.127,3.116,9.604,3.116c3.731,0,6.847-0.805,9.349-2.417c2.502-1.61,3.754-3.518,3.754-5.724
			c0-3.985-3.053-6.91-9.16-8.777l-10.684-2.671c-12.129-3.053-18.189-8.904-18.189-17.554c0-5.68,2.309-10.24,6.932-13.674
			c4.62-3.435,10.536-5.152,17.745-5.152c5.511,0,10.494,1.316,14.946,3.943c4.451,2.63,7.568,6.15,9.349,10.558l-10.431,4.325
			c-1.188-2.627-3.115-4.684-5.787-6.169c-2.672-1.483-5.66-2.226-8.969-2.226c-3.053,0-5.787,0.763-8.203,2.289
			c-2.418,1.527-3.625,3.393-3.625,5.597c0,3.562,3.348,6.106,10.049,7.632l9.412,2.417
			C698.684,369.404,704.875,375.637,704.875,385.05"/>
		<path fill="#777777" d="M739.092,403.367c-5.09,0-9.309-1.568-12.658-4.707c-3.35-3.136-5.068-7.504-5.151-13.101v-34.854h-10.938
			V340.02h10.938v-19.08h11.703v19.08h15.265v10.685h-15.265v31.038c0,4.156,0.806,6.976,2.417,8.458
			c1.609,1.485,3.434,2.227,5.469,2.227c0.934,0,1.846-0.105,2.736-0.318c0.889-0.211,1.716-0.487,2.48-0.827l3.688,10.43
			C746.723,402.814,743.161,403.367,739.092,403.367"/>
		<polygon fill="#777777" points="843.139,363.044 843.139,372.711 820.116,372.711 820.116,395.735 810.448,395.735 
			810.448,372.711 787.424,372.711 787.424,363.044 810.448,363.044 810.448,340.021 820.116,340.021 820.116,363.044 		"/>
		<path fill="#777777" d="M1015.408,402.35v-91.077h27.856c13.908,0,25.079,4.198,33.519,12.593
			c8.437,8.395,12.656,19.379,12.656,32.946c0,13.654-4.22,24.657-12.656,33.009c-8.439,8.353-19.61,12.529-33.519,12.529H1015.408z
			 M1027.111,322.467v68.689h16.153c10.601,0,18.953-3.031,25.06-9.095c6.104-6.062,9.158-14.479,9.158-25.249
			c0-10.685-3.054-19.081-9.158-25.186c-6.106-6.106-14.459-9.159-25.06-9.159H1027.111z"/>
		<path fill="#777777" d="M1124.928,337.986c8.65,0,15.475,2.311,20.48,6.932c5.002,4.623,7.504,10.962,7.504,19.017v38.415h-11.193
			v-8.65h-0.51c-4.832,7.124-11.279,10.685-19.334,10.685c-6.869,0-12.615-2.035-17.235-6.105
			c-4.623-4.071-6.933-9.159-6.933-15.264c0-6.444,2.437-11.576,7.313-15.392c4.875-3.816,11.386-5.724,19.526-5.724
			c6.951,0,12.677,1.272,17.172,3.816v-2.671c0-4.071-1.612-7.525-4.834-10.367c-3.225-2.841-6.995-4.262-11.321-4.262
			c-6.53,0-11.703,2.757-15.519,8.269l-10.303-6.488C1105.422,342.057,1113.817,337.986,1124.928,337.986 M1109.791,383.27
			c0,3.053,1.291,5.597,3.879,7.632c2.586,2.035,5.617,3.053,9.096,3.053c4.917,0,9.305-1.823,13.166-5.47
			c3.857-3.646,5.787-7.928,5.787-12.847c-3.647-2.882-8.736-4.325-15.264-4.325c-4.752,0-8.715,1.144-11.894,3.435
			C1111.381,377.037,1109.791,379.878,1109.791,383.27"/>
		<polygon fill="#777777" points="1220.585,340.021 1181.533,429.826 1169.448,429.826 1183.949,398.407 1158.256,340.021 
			1170.976,340.021 1189.548,384.795 1189.802,384.795 1207.863,340.021 		"/>
		<path fill="#4285F4" d="M1001.449,355.226c0-3.979-0.365-7.806-1.022-11.479H947.57v21.712h30.203
			c-1.303,7.016-5.256,12.959-11.199,16.936v14.078h18.142C995.322,386.705,1001.449,372.316,1001.449,355.226"/>
		<path fill="#34A853" d="M947.57,410.07c15.149,0,27.853-5.023,37.146-13.597l-18.142-14.078
			c-5.023,3.366-11.453,5.352-19.004,5.352c-14.615,0-26.988-9.865-31.403-23.134h-18.749v14.542
			C906.648,397.496,925.635,410.07,947.57,410.07"/>
		<path fill="#FBBC05" d="M916.166,364.613c-1.121-3.367-1.76-6.959-1.76-10.662c0-3.7,0.639-7.295,1.76-10.662v-14.542h-18.748
			c-3.801,7.578-5.969,16.148-5.969,25.204c0,9.056,2.168,17.622,5.969,25.204L916.166,364.613z"/>
		<path fill="#EA4335" d="M947.57,320.151c8.238,0,15.637,2.833,21.451,8.391l16.096-16.094
			c-9.719-9.058-22.422-14.617-37.547-14.617c-21.936,0-40.922,12.574-50.152,30.916l18.749,14.542
			C920.582,330.022,932.955,320.151,947.57,320.151"/>
	</g>
</g>
<g id="Layer_2" display="none">
	
		<text transform="matrix(1 0 0 1 306.3047 534.8623)" display="inline" fill="#767676" font-family="'Lato-Light'" font-size="108.5">George Town 2017</text>
	<polygon display="inline" fill="#777777" points="255.764,397.781 253.895,394.549 247.273,383.1 234.813,404.643 224.545,422.395 
		241.529,422.395 	"/>
	<polygon display="inline" fill="#777777" points="243.808,377.108 234.688,361.338 199.369,422.396 217.613,422.396 	"/>
	<polygon display="inline" fill="#777777" points="268.353,376.012 217.613,288.292 199.369,288.292 234.688,349.355 
		234.689,349.351 247.276,371.112 247.277,371.11 259.232,391.784 	"/>
	<path display="inline" fill="#777777" d="M277.373,360.407c1.812-3.125,1.812-7.004,0.002-10.127l-35.846-61.989h-16.984
		l47.271,81.725L277.373,360.407z"/>
	<path display="inline" fill="#777777" d="M311.305,402.334v-91.077h27.857c13.907,0,25.078,4.198,33.518,12.593
		c8.438,8.395,12.657,19.379,12.657,32.946c0,13.654-4.22,24.657-12.657,33.009c-8.439,8.353-19.61,12.529-33.518,12.529H311.305z
		 M323.008,322.451v68.689h16.154c10.6,0,18.953-3.031,25.059-9.095c6.105-6.062,9.159-14.479,9.159-25.249
		c0-10.685-3.054-19.081-9.159-25.186c-6.105-6.106-14.459-9.159-25.059-9.159H323.008z"/>
	<path display="inline" fill="#777777" d="M423.241,404.369c-9.158,0-16.707-3.137-22.642-9.413
		c-5.937-6.275-8.904-14.203-8.904-23.787c0-9.496,2.882-17.405,8.649-23.723c5.767-6.317,13.144-9.477,22.134-9.477
		c9.242,0,16.6,2.989,22.069,8.968c5.47,5.978,8.204,14.354,8.204,25.123l-0.127,1.271h-48.973
		c0.169,6.106,2.203,11.025,6.105,14.756c3.899,3.731,8.564,5.597,13.992,5.597c7.462,0,13.313-3.731,17.554-11.194l10.431,5.088
		c-2.798,5.259-6.678,9.371-11.639,12.338C435.135,402.885,429.516,404.369,423.241,404.369 M404.543,363.664h35.743
		c-0.34-4.325-2.099-7.906-5.278-10.749c-3.181-2.84-7.441-4.261-12.784-4.261c-4.409,0-8.204,1.358-11.385,4.071
		C407.659,355.44,405.561,359.085,404.543,363.664"/>
	<polygon display="inline" fill="#777777" points="492.439,402.334 480.736,402.334 455.551,340.004 468.271,340.004 
		486.588,388.341 486.843,388.341 505.414,340.004 517.879,340.004 	"/>
	<polygon display="inline" fill="#777777" points="539.248,363.283 539.248,402.334 527.545,402.334 527.545,311.257 
		580.716,311.257 580.716,322.451 539.248,322.451 539.248,352.344 576.645,352.344 576.645,363.283 	"/>
	<path display="inline" fill="#777777" d="M616.076,404.369c-9.158,0-16.707-3.137-22.642-9.413
		c-5.937-6.275-8.904-14.203-8.904-23.787c0-9.496,2.882-17.405,8.649-23.723c5.767-6.317,13.144-9.477,22.134-9.477
		c9.242,0,16.6,2.989,22.069,8.968c5.47,5.978,8.204,14.354,8.204,25.123l-0.127,1.271h-48.974
		c0.17,6.106,2.205,11.025,6.106,14.756c3.899,3.731,8.564,5.597,13.992,5.597c7.462,0,13.313-3.731,17.554-11.194l10.43,5.088
		c-2.797,5.259-6.677,9.371-11.638,12.338C627.97,402.885,622.351,404.369,616.076,404.369 M597.378,363.664h35.743
		c-0.34-4.325-2.099-7.906-5.278-10.749c-3.181-2.84-7.442-4.261-12.784-4.261c-4.41,0-8.204,1.358-11.385,4.071
		C600.494,355.44,598.396,359.085,597.378,363.664"/>
	<path display="inline" fill="#777777" d="M704.607,385.034c0,5.428-2.375,10.007-7.123,13.738c-4.75,3.73-10.73,5.596-17.936,5.596
		c-6.277,0-11.788-1.633-16.537-4.896c-4.75-3.264-8.141-7.569-10.176-12.912l10.431-4.452c1.526,3.733,3.753,6.636,6.678,8.714
		c2.926,2.079,6.126,3.116,9.604,3.116c3.73,0,6.847-0.805,9.349-2.417c2.501-1.61,3.753-3.518,3.753-5.724
		c0-3.985-3.053-6.91-9.159-8.777l-10.685-2.671c-12.128-3.053-18.189-8.904-18.189-17.554c0-5.68,2.31-10.24,6.932-13.674
		c4.62-3.435,10.536-5.152,17.745-5.152c5.512,0,10.494,1.316,14.946,3.943c4.453,2.63,7.568,6.15,9.35,10.558l-10.43,4.325
		c-1.189-2.627-3.117-4.684-5.789-6.169c-2.671-1.483-5.66-2.226-8.968-2.226c-3.053,0-5.787,0.763-8.204,2.289
		c-2.417,1.527-3.625,3.394-3.625,5.597c0,3.562,3.348,6.106,10.049,7.632l9.413,2.417
		C698.416,369.388,704.607,375.621,704.607,385.034"/>
	<path display="inline" fill="#777777" d="M738.824,403.352c-5.088,0-9.307-1.568-12.656-4.708
		c-3.352-3.136-5.068-7.504-5.152-13.101v-34.854h-10.939v-10.685h10.939v-19.08h11.703v19.08h15.264v10.685h-15.264v31.038
		c0,4.156,0.805,6.976,2.416,8.458c1.611,1.485,3.436,2.227,5.471,2.227c0.932,0,1.844-0.105,2.734-0.318
		c0.891-0.211,1.717-0.487,2.48-0.827l3.689,10.43C746.457,402.799,742.895,403.352,738.824,403.352"/>
	<polygon display="inline" fill="#777777" points="842.873,363.028 842.873,372.695 819.85,372.695 819.85,395.719 810.182,395.719 
		810.182,372.695 787.158,372.695 787.158,363.028 810.182,363.028 810.182,340.004 819.85,340.004 819.85,363.028 	"/>
	<path display="inline" fill="#777777" d="M1015.141,402.334v-91.077h27.857c13.907,0,25.08,4.198,33.518,12.593
		s12.658,19.379,12.658,32.946c0,13.654-4.221,24.657-12.658,33.009c-8.438,8.353-19.61,12.529-33.518,12.529H1015.141z
		 M1026.844,322.451v68.689h16.154c10.6,0,18.953-3.031,25.059-9.095c6.105-6.062,9.16-14.479,9.16-25.249
		c0-10.685-3.055-19.081-9.16-25.186c-6.105-6.106-14.459-9.159-25.059-9.159H1026.844z"/>
	<path display="inline" fill="#777777" d="M1124.662,337.969c8.648,0,15.475,2.312,20.479,6.932
		c5.002,4.623,7.506,10.962,7.506,19.017v38.416h-11.195v-8.65h-0.508c-4.834,7.124-11.279,10.686-19.334,10.686
		c-6.869,0-12.615-2.035-17.236-6.106c-4.623-4.071-6.934-9.159-6.934-15.264c0-6.444,2.438-11.576,7.314-15.392
		c4.875-3.816,11.385-5.724,19.525-5.724c6.953,0,12.678,1.272,17.172,3.816v-2.671c0-4.071-1.611-7.525-4.832-10.367
		c-3.225-2.841-6.996-4.262-11.322-4.262c-6.531,0-11.703,2.757-15.518,8.269l-10.305-6.488
		C1105.156,342.041,1113.551,337.969,1124.662,337.969 M1109.523,383.253c0,3.053,1.293,5.597,3.881,7.632
		c2.586,2.035,5.617,3.053,9.094,3.053c4.918,0,9.307-1.823,13.166-5.47c3.857-3.645,5.787-7.928,5.787-12.847
		c-3.646-2.882-8.734-4.325-15.264-4.325c-4.75,0-8.713,1.144-11.893,3.435C1111.115,377.021,1109.523,379.862,1109.523,383.253"/>
	<polygon display="inline" fill="#777777" points="1220.318,340.004 1181.268,429.81 1169.182,429.81 1183.684,398.391 
		1157.988,340.004 1170.709,340.004 1189.281,384.779 1189.535,384.779 1207.598,340.004 	"/>
	<path display="inline" fill="#777777" d="M1001.16,343.731h-52.857v21.712h30.205c-1.303,7.015-5.256,12.959-11.199,16.935
		c-5.023,3.367-11.453,5.353-19.006,5.353c-14.613,0-26.986-9.866-31.402-23.135c-1.121-3.367-1.76-6.959-1.76-10.662
		c0-3.7,0.639-7.295,1.76-10.662c4.416-13.267,16.789-23.138,31.402-23.138c8.24,0,15.639,2.833,21.453,8.391l16.096-16.093
		c-9.719-9.058-22.422-14.618-37.549-14.618c-21.934,0-40.92,12.575-50.15,30.916c-3.801,7.578-5.969,16.148-5.969,25.204
		s2.168,17.623,5.969,25.204c9.23,18.342,28.217,30.916,50.15,30.916c15.152,0,27.854-5.023,37.146-13.597
		c10.607-9.768,16.734-24.157,16.734-41.247C1002.184,351.231,1001.818,347.404,1001.16,343.731"/>
</g>
<g id="Layer_3" display="none">
	
		<text transform="matrix(1 0 0 1 24.9243 640.959)" display="inline" fill="#767676" font-family="'Lato-Light'" font-size="89.1135">George Town 2017</text>
	<polygon display="inline" fill="#FFC107" points="107.454,309.624 92.623,283.964 57.015,345.525 87.503,345.525 107.859,310.322 	
		"/>
	<polygon display="inline" fill="#0F9D58" points="76.578,256.225 92.623,283.964 57.015,345.525 24.925,345.525 	"/>
	<polygon display="inline" fill="#4285F4" points="57.015,166.927 24.925,166.927 107.859,310.322 123.893,282.597 123.904,282.568 
			"/>
	<path display="inline" fill="#EA4335" d="M134.3,264.594c3.002-5.176,3.002-11.563,0-16.74l-46.797-80.927H57.015l66.889,115.641
		L134.3,264.594z"/>
	<path display="inline" fill="#777777" d="M178.678,319.724V196.635h37.649c18.796,0,33.896,5.672,45.3,17.021
		c11.403,11.343,17.106,26.189,17.106,44.525c0,18.453-5.703,33.322-17.106,44.61c-11.404,11.29-26.504,16.933-45.3,16.933H178.678z
		 M194.495,211.762v92.835h21.832c14.326,0,25.615-4.098,33.867-12.293c8.252-8.189,12.378-19.566,12.378-34.123
		c0-14.44-4.126-25.789-12.378-34.038c-8.252-8.255-19.541-12.381-33.867-12.381H194.495z"/>
	<path display="inline" fill="#777777" d="M329.961,322.475c-12.377,0-22.58-4.238-30.6-12.722
		c-8.025-8.479-12.034-19.194-12.034-32.147c0-12.835,3.895-23.521,11.689-32.062c7.793-8.537,17.764-12.807,29.913-12.807
		c12.492,0,22.436,4.039,29.826,12.118c7.393,8.079,11.089,19.401,11.089,33.955l-0.172,1.716h-66.186
		c0.228,8.254,2.978,14.902,8.252,19.943c5.269,5.045,11.574,7.563,18.908,7.563c10.086,0,17.993-5.04,23.726-15.127l14.097,6.879
		c-3.781,7.104-9.025,12.664-15.731,16.675C346.034,320.468,338.44,322.475,329.961,322.475 M304.69,267.463h48.307
		c-0.46-5.847-2.837-10.685-7.134-14.528c-4.299-3.838-10.057-5.758-17.277-5.758c-5.961,0-11.088,1.834-15.387,5.501
		C308.9,256.349,306.065,261.275,304.69,267.463"/>
	<polygon display="inline" fill="#777777" points="423.482,319.724 407.667,319.724 373.626,235.488 390.818,235.488 
		415.576,300.814 415.917,300.814 441.019,235.488 457.865,235.488 	"/>
	<polygon display="inline" fill="#777777" points="486.744,266.948 486.744,319.724 470.929,319.724 470.929,196.635 
		542.787,196.635 542.787,211.762 486.744,211.762 486.744,252.163 537.287,252.163 537.287,266.948 	"/>
	<path display="inline" fill="#777777" d="M590.578,322.475c-12.377,0-22.578-4.238-30.6-12.722
		c-8.023-8.479-12.035-19.194-12.035-32.147c0-12.835,3.896-23.521,11.691-32.062c7.791-8.537,17.762-12.807,29.912-12.807
		c12.49,0,22.434,4.039,29.83,12.118c7.389,8.079,11.086,19.401,11.086,33.955l-0.172,1.716h-66.188
		c0.23,8.254,2.98,14.902,8.252,19.943c5.27,5.045,11.574,7.563,18.91,7.563c10.086,0,17.992-5.04,23.725-15.127l14.096,6.879
		c-3.779,7.104-9.025,12.664-15.729,16.675C606.652,320.468,599.056,322.475,590.578,322.475 M565.306,267.463h48.309
		c-0.459-5.847-2.838-10.685-7.135-14.528c-4.297-3.838-10.057-5.758-17.277-5.758c-5.961,0-11.09,1.834-15.387,5.501
		C569.519,256.349,566.681,261.275,565.306,267.463"/>
	<path display="inline" fill="#777777" d="M710.228,296.345c0,7.335-3.211,13.523-9.629,18.566
		c-6.418,5.042-14.5,7.563-24.238,7.563c-8.484,0-15.93-2.207-22.35-6.617c-6.418-4.41-11.002-10.23-13.752-17.449l14.098-6.017
		c2.061,5.043,5.072,8.971,9.023,11.775c3.953,2.81,8.279,4.213,12.98,4.213c5.043,0,9.252-1.088,12.635-3.268
		c3.381-2.176,5.074-4.754,5.074-7.736c0-5.386-4.127-9.34-12.381-11.861l-14.439-3.611c-16.393-4.125-24.584-12.035-24.584-23.723
		c0-7.679,3.121-13.84,9.369-18.481c6.246-4.642,14.238-6.962,23.982-6.962c7.447,0,14.182,1.777,20.201,5.328
		c6.014,3.554,10.229,8.311,12.635,14.27l-14.1,5.846c-1.604-3.551-4.209-6.333-7.818-8.338c-3.611-2.004-7.65-3.01-12.123-3.01
		c-4.125,0-7.82,1.033-11.086,3.094c-3.27,2.063-4.9,4.587-4.9,7.565c0,4.814,4.525,8.252,13.582,10.314l12.719,3.267
		C701.859,275.2,710.228,283.623,710.228,296.345"/>
	<path display="inline" fill="#777777" d="M756.473,321.101c-6.879,0-12.581-2.121-17.106-6.36
		c-4.527-4.238-6.852-10.144-6.963-17.708v-47.105h-14.785v-14.439h14.785v-25.786h15.814v25.786h20.633v14.439h-20.633v41.949
		c0,5.616,1.092,9.427,3.27,11.432c2.172,2.007,4.641,3.008,7.389,3.008c1.262,0,2.496-0.142,3.699-0.43
		c1.201-0.283,2.32-0.659,3.352-1.118l4.984,14.097C766.785,320.354,761.975,321.101,756.473,321.101"/>
	<polygon display="inline" fill="#777777" points="100.224,454.018 100.224,467.082 69.107,467.082 69.107,498.199 56.041,498.199 
		56.041,467.082 24.925,467.082 24.925,454.018 56.041,454.018 56.041,422.902 69.107,422.902 69.107,454.018 	"/>
	<path display="inline" fill="#777777" d="M340.753,507.137V384.05h37.651c18.797,0,33.895,5.671,45.299,17.018
		c11.402,11.348,17.107,26.189,17.107,44.527c0,18.453-5.705,33.322-17.107,44.611c-11.404,11.287-26.502,16.93-45.299,16.93
		H340.753z M356.57,399.177v92.833h21.833c14.326,0,25.615-4.096,33.867-12.291c8.252-8.191,12.379-19.568,12.379-34.123
		c0-14.439-4.127-25.787-12.379-34.041c-8.252-8.252-19.541-12.377-33.867-12.377H356.57z"/>
	<path display="inline" fill="#777777" d="M488.773,420.15c11.688,0,20.914,3.123,27.676,9.369
		c6.762,6.248,10.145,14.814,10.145,25.703v51.914h-15.131v-11.689h-0.686c-6.533,9.629-15.244,14.441-26.131,14.441
		c-9.283,0-17.049-2.752-23.293-8.252c-6.25-5.5-9.373-12.377-9.373-20.629c0-8.709,3.295-15.645,9.887-20.801
		c6.588-5.156,15.387-7.734,26.389-7.734c9.396,0,17.135,1.717,23.207,5.156v-3.611c0-5.5-2.176-10.168-6.531-14.01
		c-4.355-3.838-9.453-5.76-15.303-5.76c-8.824,0-15.814,3.727-20.969,11.174l-13.928-8.768
		C462.412,425.654,473.755,420.15,488.773,420.15 M468.314,481.352c0,4.127,1.746,7.564,5.244,10.316
		c3.496,2.75,7.592,4.125,12.289,4.125c6.646,0,12.58-2.463,17.795-7.393c5.215-4.926,7.82-10.717,7.82-17.363
		c-4.926-3.895-11.805-5.846-20.629-5.846c-6.42,0-11.775,1.547-16.072,4.643C470.462,472.928,468.314,476.768,468.314,481.352"/>
	<polygon display="inline" fill="#777777" points="618.052,422.902 565.275,544.273 548.941,544.273 568.541,501.809 
		533.812,422.902 551.005,422.902 576.107,483.414 576.449,483.414 600.861,422.902 	"/>
	<path display="inline" fill="#4285F4" d="M321.891,443.453c0-5.377-0.496-10.553-1.382-15.514h-71.437v29.344h40.818
		c-1.76,9.479-7.102,17.514-15.135,22.887v19.025h24.518C313.609,485.994,321.891,466.549,321.891,443.453"/>
	<path display="inline" fill="#34A853" d="M249.072,517.574c20.475,0,37.642-6.791,50.201-18.379l-24.518-19.025
		c-6.789,4.551-15.479,7.234-25.684,7.234c-19.751,0-36.477-13.334-42.441-31.268H181.29v19.656
		C193.768,500.578,219.428,517.574,249.072,517.574"/>
	<path display="inline" fill="#FBBC05" d="M206.631,456.139c-1.516-4.553-2.38-9.406-2.38-14.41c0-5.002,0.864-9.859,2.38-14.41
		v-19.654H181.29c-5.136,10.242-8.064,21.826-8.064,34.064c0,12.24,2.929,23.816,8.064,34.064L206.631,456.139z"/>
	<path display="inline" fill="#EA4335" d="M249.072,396.048c11.136,0,21.133,3.828,28.992,11.34l21.751-21.75
		c-13.133-12.243-30.302-19.758-50.743-19.758c-29.645,0-55.305,16.997-67.782,41.783l25.341,19.656
		C212.596,409.389,229.321,396.048,249.072,396.048"/>
</g>
<g id="Layer_3_copy">
	<g>
		<path fill="#FFFFFF" d="M77.879,632.431c-1.509,2.35-4.127,4.511-7.854,6.483s-8.565,2.959-14.512,2.959
			c-7.31,0-13.358-2.422-18.145-7.268c-4.786-4.844-7.18-11.109-7.18-18.797v-13.054c0-7.687,2.307-13.952,6.919-18.798
			c4.612-4.844,10.559-7.266,17.84-7.266c7.049,0,12.619,1.878,16.709,5.635s6.077,8.535,5.961,14.337l-0.087,0.261h-8.224
			c0-3.857-1.248-7.07-3.742-9.638c-2.495-2.567-6.034-3.851-10.617-3.851c-4.845,0-8.746,1.813-11.705,5.439
			c-2.958,3.626-4.438,8.224-4.438,13.793v13.141c0,5.629,1.566,10.262,4.699,13.902s7.136,5.461,12.009,5.461
			c3.742,0,6.708-0.485,8.898-1.457c2.19-0.973,3.822-2.125,4.896-3.46v-14.272H54.948v-6.701h22.932V632.431z"/>
		<path fill="#FFFFFF" d="M110.992,641.873c-6.76,0-12.031-2.161-15.816-6.484c-3.786-4.321-5.679-10.008-5.679-17.057v-1.914
			c0-6.759,1.95-12.35,5.853-16.773c3.901-4.424,8.666-6.637,14.294-6.637c6.294,0,11.016,1.959,14.163,5.875
			s4.721,9.123,4.721,15.621v4.525h-30.11l-0.131,0.217c0,4.729,1.045,8.565,3.134,11.51c2.088,2.943,5.279,4.416,9.572,4.416
			c2.9,0,5.446-0.414,7.637-1.24c2.189-0.826,4.068-1.965,5.635-3.416l3.351,5.57c-1.683,1.625-3.902,2.995-6.657,4.111
			C118.2,641.314,114.878,641.873,110.992,641.873z M109.643,599.752c-2.988,0-5.461,1.154-7.419,3.46s-3.155,5.259-3.59,8.854
			l0.087,0.218h21.234v-0.696c0-3.422-0.842-6.25-2.524-8.484S113.153,599.752,109.643,599.752z"/>
		<path fill="#FFFFFF" d="M136.142,616.983c0-6.962,1.886-12.698,5.656-17.209c3.771-4.511,8.892-6.767,15.36-6.767
			c6.526,0,11.683,2.249,15.469,6.744c3.785,4.498,5.679,10.241,5.679,17.231v0.958c0,7.02-1.887,12.764-5.657,17.23
			c-3.771,4.467-8.905,6.701-15.403,6.701s-11.64-2.241-15.425-6.723c-3.786-4.482-5.679-10.219-5.679-17.209V616.983z
			 M144.714,617.941c0,4.989,1.051,9.108,3.154,12.357c2.103,3.248,5.229,4.873,9.377,4.873c4.09,0,7.194-1.625,9.312-4.873
			c2.117-3.249,3.177-7.368,3.177-12.357v-0.958c0-4.931-1.066-9.036-3.198-12.313s-5.258-4.918-9.377-4.918
			c-4.09,0-7.188,1.641-9.29,4.918c-2.104,3.277-3.154,7.383-3.154,12.313V617.941z"/>
		<path fill="#FFFFFF" d="M211.071,601.449l-4.396-0.261c-2.263,0-4.17,0.537-5.722,1.61s-2.748,2.582-3.59,4.525v33.635h-8.571
			v-47.08h7.658l0.826,6.875c1.334-2.438,2.98-4.337,4.938-5.701c1.958-1.363,4.214-2.045,6.767-2.045
			c0.638,0,1.247,0.051,1.827,0.152c0.58,0.103,1.059,0.211,1.437,0.326L211.071,601.449z"/>
		<path fill="#FFFFFF" d="M217.641,618.289c0-7.571,1.617-13.678,4.852-18.318s7.752-6.963,13.555-6.963
			c2.987,0,5.612,0.604,7.875,1.807s4.163,2.937,5.7,5.199l1.045-6.135h6.831v47.342c0,6.033-1.755,10.666-5.265,13.901
			c-3.511,3.234-8.572,4.853-15.187,4.853c-2.262,0-4.706-0.313-7.331-0.936c-2.626-0.625-4.939-1.473-6.94-2.546l1.306-6.657
			c1.653,0.869,3.647,1.572,5.982,2.109s4.634,0.806,6.896,0.806c4.178,0,7.216-0.95,9.116-2.851c1.899-1.9,2.85-4.793,2.85-8.68
			v-5.353c-1.537,1.973-3.379,3.467-5.525,4.481c-2.147,1.016-4.628,1.523-7.44,1.523c-5.744,0-10.233-2.082-13.468-6.244
			s-4.852-9.639-4.852-16.426V618.289z M226.213,619.203c0,4.729,0.972,8.527,2.915,11.4c1.943,2.871,4.945,4.307,9.007,4.307
			c2.582,0,4.743-0.587,6.483-1.762c1.741-1.175,3.177-2.835,4.308-4.982v-21.669c-1.103-2.001-2.538-3.59-4.308-4.765
			s-3.901-1.762-6.396-1.762c-4.09,0-7.114,1.696-9.072,5.09c-1.958,3.395-2.937,7.805-2.937,13.229V619.203z"/>
		<path fill="#FFFFFF" d="M289.306,641.873c-6.76,0-12.031-2.161-15.816-6.484c-3.786-4.321-5.679-10.008-5.679-17.057v-1.914
			c0-6.759,1.95-12.35,5.853-16.773c3.901-4.424,8.666-6.637,14.294-6.637c6.294,0,11.016,1.959,14.163,5.875
			s4.721,9.123,4.721,15.621v4.525h-30.11l-0.131,0.217c0,4.729,1.045,8.565,3.134,11.51c2.088,2.943,5.279,4.416,9.572,4.416
			c2.9,0,5.446-0.414,7.637-1.24c2.189-0.826,4.068-1.965,5.635-3.416l3.351,5.57c-1.683,1.625-3.902,2.995-6.657,4.111
			C296.514,641.314,293.193,641.873,289.306,641.873z M287.958,599.752c-2.988,0-5.461,1.154-7.419,3.46s-3.155,5.259-3.59,8.854
			l0.087,0.218h21.234v-0.696c0-3.422-0.842-6.25-2.524-8.484S291.467,599.752,287.958,599.752z"/>
		<path fill="#FFFFFF" d="M384.076,584.35H363.19v56.609h-8.571V584.35h-20.625v-6.744h50.082V584.35z"/>
		<path fill="#FFFFFF" d="M385.599,616.983c0-6.962,1.886-12.698,5.656-17.209c3.771-4.511,8.892-6.767,15.36-6.767
			c6.526,0,11.683,2.249,15.469,6.744c3.785,4.498,5.679,10.241,5.679,17.231v0.958c0,7.02-1.887,12.764-5.657,17.23
			c-3.771,4.467-8.905,6.701-15.403,6.701s-11.64-2.241-15.425-6.723c-3.786-4.482-5.679-10.219-5.679-17.209V616.983z
			 M394.171,617.941c0,4.989,1.051,9.108,3.154,12.357c2.103,3.248,5.229,4.873,9.377,4.873c4.09,0,7.194-1.625,9.312-4.873
			c2.117-3.249,3.177-7.368,3.177-12.357v-0.958c0-4.931-1.066-9.036-3.198-12.313s-5.258-4.918-9.377-4.918
			c-4.09,0-7.188,1.641-9.29,4.918c-2.104,3.277-3.154,7.383-3.154,12.313V617.941z"/>
		<path fill="#FFFFFF" d="M450.302,623.814l1.088,6.049h0.261l1.132-6.049l9.398-29.936h6.875l9.442,29.936l1.218,6.745h0.262
			l1.392-6.745l6.962-29.936h8.964l-13.663,47.08h-6.918l-9.312-28.675l-1.784-7.483h-0.262l-1.653,7.483l-9.138,28.675h-6.918
			l-13.663-47.08h8.92L450.302,623.814z"/>
		<path fill="#FFFFFF" d="M513.352,593.879l0.608,7.005c1.566-2.494,3.531-4.431,5.896-5.809c2.364-1.378,5.054-2.067,8.071-2.067
			c5.076,0,9.007,1.487,11.792,4.461c2.785,2.973,4.177,7.564,4.177,13.771v29.719h-8.571v-29.545c0-4.148-0.82-7.093-2.459-8.833
			c-1.639-1.741-4.141-2.61-7.506-2.61c-2.64,0-4.881,0.529-6.723,1.588s-3.3,2.545-4.373,4.46v34.94h-8.571v-47.08H513.352z"/>
		<path fill="#FFFFFF" d="M618.13,640.959h-39.335v-5.874l19.885-23.714c3.539-4.293,5.939-7.709,7.201-10.248
			c1.262-2.537,1.893-5.098,1.893-7.68c0-2.93-0.855-5.33-2.567-7.201s-4.075-2.807-7.092-2.807c-3.742,0-6.593,1.146-8.551,3.438
			c-1.958,2.292-2.937,5.149-2.937,8.572h-8.268l-0.087-0.262c-0.146-5.162,1.58-9.535,5.178-13.119
			c3.597-3.582,8.485-5.373,14.664-5.373c5.656,0,10.109,1.566,13.358,4.699c3.248,3.133,4.873,7.18,4.873,12.14
			c0,3.337-0.921,6.6-2.763,9.79c-1.843,3.191-4.649,7.195-8.42,12.01l-15.969,18.711l0.087,0.217h28.849V640.959z"/>
		<path fill="#FFFFFF" d="M667.691,618.594c0,7.165-1.82,12.836-5.461,17.014c-3.641,4.177-8.536,6.266-14.686,6.266
			c-6.121,0-11.016-2.089-14.686-6.266c-3.67-4.178-5.504-9.849-5.504-17.014v-18.623c0-7.107,1.82-12.764,5.461-16.971
			c3.64-4.205,8.521-6.309,14.642-6.309c6.149,0,11.06,2.104,14.729,6.309c3.669,4.207,5.504,9.863,5.504,16.971V618.594z
			 M659.119,598.186c0-4.553-1.016-8.15-3.046-10.791c-2.03-2.639-4.902-3.959-8.615-3.959c-3.685,0-6.526,1.32-8.528,3.959
			c-2.002,2.641-3.002,6.238-3.002,10.791v22.148c0,4.555,1.022,8.166,3.067,10.834c2.045,2.67,4.895,4.004,8.55,4.004
			c3.713,0,6.57-1.327,8.572-3.981s3.002-6.272,3.002-10.856V598.186z"/>
		<path fill="#FFFFFF" d="M703.5,640.959h-8.615v-55.436l-13.793,0.131v-6.613l22.408-2.35V640.959z"/>
		<path fill="#FFFFFF" d="M769.031,584.35c-8.008,9.515-13.418,17.912-16.23,25.193c-2.814,7.281-4.221,15.447-4.221,24.498v6.918
			h-8.572v-6.918c0-9.573,1.763-18.195,5.287-25.869c3.524-7.672,8.622-15.613,15.295-23.822h-33.592v-6.744h42.034V584.35z"/>
	</g>
	<polygon fill="#FFC107" points="107.454,309.624 92.623,283.964 57.015,345.525 87.503,345.525 107.859,310.322 	"/>
	<polygon fill="#0F9D58" points="76.578,256.225 92.623,283.964 57.015,345.525 24.925,345.525 	"/>
	<polygon fill="#4285F4" points="57.015,166.927 24.925,166.927 107.859,310.322 123.893,282.597 123.904,282.568 	"/>
	<path fill="#EA4335" d="M134.3,264.594c3.002-5.176,3.002-11.563,0-16.74l-46.797-80.927H57.015l66.889,115.641L134.3,264.594z"/>
	<path fill="#FFFFFF" d="M178.678,319.724V196.635h37.649c18.796,0,33.896,5.672,45.3,17.021
		c11.403,11.343,17.106,26.189,17.106,44.525c0,18.453-5.703,33.322-17.106,44.61c-11.404,11.29-26.504,16.933-45.3,16.933H178.678z
		 M194.495,211.762v92.835h21.832c14.326,0,25.615-4.098,33.867-12.293c8.252-8.189,12.378-19.566,12.378-34.123
		c0-14.44-4.126-25.789-12.378-34.038c-8.252-8.255-19.541-12.381-33.867-12.381H194.495z"/>
	<path fill="#FFFFFF" d="M329.961,322.475c-12.377,0-22.58-4.238-30.6-12.722c-8.025-8.479-12.034-19.194-12.034-32.147
		c0-12.835,3.895-23.521,11.689-32.062c7.793-8.537,17.764-12.807,29.913-12.807c12.492,0,22.436,4.039,29.826,12.118
		c7.393,8.079,11.089,19.401,11.089,33.955l-0.172,1.716h-66.186c0.228,8.254,2.978,14.902,8.252,19.943
		c5.269,5.045,11.574,7.563,18.908,7.563c10.086,0,17.993-5.04,23.726-15.127l14.097,6.879c-3.781,7.104-9.025,12.664-15.731,16.675
		C346.034,320.468,338.44,322.475,329.961,322.475 M304.69,267.463h48.307c-0.46-5.847-2.837-10.685-7.134-14.528
		c-4.299-3.838-10.057-5.758-17.277-5.758c-5.961,0-11.088,1.834-15.387,5.501C308.9,256.349,306.065,261.275,304.69,267.463"/>
	<polygon fill="#FFFFFF" points="423.482,319.724 407.667,319.724 373.626,235.488 390.818,235.488 415.576,300.814 
		415.917,300.814 441.019,235.488 457.865,235.488 	"/>
	<polygon fill="#FFFFFF" points="486.744,266.948 486.744,319.724 470.929,319.724 470.929,196.635 542.787,196.635 
		542.787,211.762 486.744,211.762 486.744,252.163 537.287,252.163 537.287,266.948 	"/>
	<path fill="#FFFFFF" d="M590.578,322.475c-12.377,0-22.578-4.238-30.6-12.722c-8.023-8.479-12.035-19.194-12.035-32.147
		c0-12.835,3.896-23.521,11.691-32.062c7.791-8.537,17.762-12.807,29.912-12.807c12.49,0,22.434,4.039,29.83,12.118
		c7.389,8.079,11.086,19.401,11.086,33.955l-0.172,1.716h-66.188c0.23,8.254,2.98,14.902,8.252,19.943
		c5.27,5.045,11.574,7.563,18.91,7.563c10.086,0,17.992-5.04,23.725-15.127l14.096,6.879c-3.779,7.104-9.025,12.664-15.729,16.675
		C606.652,320.468,599.056,322.475,590.578,322.475 M565.306,267.463h48.309c-0.459-5.847-2.838-10.685-7.135-14.528
		c-4.297-3.838-10.057-5.758-17.277-5.758c-5.961,0-11.09,1.834-15.387,5.501C569.519,256.349,566.681,261.275,565.306,267.463"/>
	<path fill="#FFFFFF" d="M710.228,296.345c0,7.335-3.211,13.523-9.629,18.566c-6.418,5.042-14.5,7.563-24.238,7.563
		c-8.484,0-15.93-2.207-22.35-6.617c-6.418-4.41-11.002-10.23-13.752-17.449l14.098-6.017c2.061,5.043,5.072,8.971,9.023,11.775
		c3.953,2.81,8.279,4.213,12.98,4.213c5.043,0,9.252-1.088,12.635-3.268c3.381-2.176,5.074-4.754,5.074-7.736
		c0-5.386-4.127-9.34-12.381-11.861l-14.439-3.611c-16.393-4.125-24.584-12.035-24.584-23.723c0-7.679,3.121-13.84,9.369-18.481
		c6.246-4.642,14.238-6.962,23.982-6.962c7.447,0,14.182,1.777,20.201,5.328c6.014,3.554,10.229,8.311,12.635,14.27l-14.1,5.846
		c-1.604-3.551-4.209-6.333-7.818-8.338c-3.611-2.004-7.65-3.01-12.123-3.01c-4.125,0-7.82,1.033-11.086,3.094
		c-3.27,2.063-4.9,4.587-4.9,7.565c0,4.814,4.525,8.252,13.582,10.314l12.719,3.267C701.859,275.2,710.228,283.623,710.228,296.345"
		/>
	<path fill="#FFFFFF" d="M756.473,321.101c-6.879,0-12.581-2.121-17.106-6.36c-4.527-4.238-6.852-10.144-6.963-17.708v-47.105
		h-14.785v-14.439h14.785v-25.786h15.814v25.786h20.633v14.439h-20.633v41.949c0,5.616,1.092,9.427,3.27,11.432
		c2.172,2.007,4.641,3.008,7.389,3.008c1.262,0,2.496-0.142,3.699-0.43c1.201-0.283,2.32-0.659,3.352-1.118l4.984,14.097
		C766.785,320.354,761.975,321.101,756.473,321.101"/>
	<polygon fill="#FFFFFF" points="100.224,454.018 100.224,467.082 69.107,467.082 69.107,498.199 56.041,498.199 56.041,467.082 
		24.925,467.082 24.925,454.018 56.041,454.018 56.041,422.902 69.107,422.902 69.107,454.018 	"/>
	<path fill="#FFFFFF" d="M340.753,507.137V384.05h37.651c18.797,0,33.895,5.671,45.299,17.018
		c11.402,11.348,17.107,26.189,17.107,44.527c0,18.453-5.705,33.322-17.107,44.611c-11.404,11.287-26.502,16.93-45.299,16.93
		H340.753z M356.57,399.177v92.833h21.833c14.326,0,25.615-4.096,33.867-12.291c8.252-8.191,12.379-19.568,12.379-34.123
		c0-14.439-4.127-25.787-12.379-34.041c-8.252-8.252-19.541-12.377-33.867-12.377H356.57z"/>
	<path fill="#FFFFFF" d="M488.773,420.15c11.688,0,20.914,3.123,27.676,9.369c6.762,6.248,10.145,14.814,10.145,25.703v51.914
		h-15.131v-11.689h-0.686c-6.533,9.629-15.244,14.441-26.131,14.441c-9.283,0-17.049-2.752-23.293-8.252
		c-6.25-5.5-9.373-12.377-9.373-20.629c0-8.709,3.295-15.645,9.887-20.801c6.588-5.156,15.387-7.734,26.389-7.734
		c9.396,0,17.135,1.717,23.207,5.156v-3.611c0-5.5-2.176-10.168-6.531-14.01c-4.355-3.838-9.453-5.76-15.303-5.76
		c-8.824,0-15.814,3.727-20.969,11.174l-13.928-8.768C462.412,425.654,473.755,420.15,488.773,420.15 M468.314,481.352
		c0,4.127,1.746,7.564,5.244,10.316c3.496,2.75,7.592,4.125,12.289,4.125c6.646,0,12.58-2.463,17.795-7.393
		c5.215-4.926,7.82-10.717,7.82-17.363c-4.926-3.895-11.805-5.846-20.629-5.846c-6.42,0-11.775,1.547-16.072,4.643
		C470.462,472.928,468.314,476.768,468.314,481.352"/>
	<polygon fill="#FFFFFF" points="618.052,422.902 565.275,544.273 548.941,544.273 568.541,501.809 533.812,422.902 
		551.005,422.902 576.107,483.414 576.449,483.414 600.861,422.902 	"/>
	<path fill="#4285F4" d="M321.891,443.453c0-5.377-0.496-10.553-1.382-15.514h-71.437v29.344h40.818
		c-1.76,9.479-7.102,17.514-15.135,22.887v19.025h24.518C313.609,485.994,321.891,466.549,321.891,443.453"/>
	<path fill="#34A853" d="M249.072,517.574c20.475,0,37.642-6.791,50.201-18.379l-24.518-19.025
		c-6.789,4.551-15.479,7.234-25.684,7.234c-19.751,0-36.477-13.334-42.441-31.268H181.29v19.656
		C193.768,500.578,219.428,517.574,249.072,517.574"/>
	<path fill="#FBBC05" d="M206.631,456.139c-1.516-4.553-2.38-9.406-2.38-14.41c0-5.002,0.864-9.859,2.38-14.41v-19.654H181.29
		c-5.136,10.242-8.064,21.826-8.064,34.064c0,12.24,2.929,23.816,8.064,34.064L206.631,456.139z"/>
	<path fill="#EA4335" d="M249.072,396.048c11.136,0,21.133,3.828,28.992,11.34l21.751-21.75
		c-13.133-12.243-30.302-19.758-50.743-19.758c-29.645,0-55.305,16.997-67.782,41.783l25.341,19.656
		C212.596,409.389,229.321,396.048,249.072,396.048"/>
</g>
</svg>
