<?xml version="1.0" encoding="utf-8"?>
<!-- Generator: Adobe Illustrator 15.1.0, SVG Export Plug-In . SVG Version: 6.00 Build 0)  -->
<!DOCTYPE svg PUBLIC "-//W3C//DTD SVG 1.1//EN" "http://www.w3.org/Graphics/SVG/1.1/DTD/svg11.dtd">
<svg version="1.1" xmlns="http://www.w3.org/2000/svg" xmlns:xlink="http://www.w3.org/1999/xlink" x="0px" y="0px" width="1500px"
	 height="800px" viewBox="0 0 1500 800" enable-background="new 0 0 1500 800" xml:space="preserve">
<g id="Layer_1">
	<path fill="#767676" d="M379.213,500.326v27.288c-3.834,2.712-7.92,4.792-12.261,6.239c-4.34,1.445-9.222,2.17-14.647,2.17
		c-6.075,0-11.537-0.932-16.383-2.795c-4.848-1.861-8.979-4.502-12.396-7.92s-6.04-7.549-7.866-12.396
		c-1.827-4.846-2.739-10.234-2.739-16.166s0.895-11.312,2.685-16.14c1.791-4.828,4.358-8.951,7.704-12.369
		c3.345-3.417,7.387-6.058,12.125-7.921c4.737-1.861,10.071-2.793,16.004-2.793c2.929,0,5.632,0.199,8.11,0.596
		c2.477,0.398,4.782,0.986,6.916,1.764c2.134,0.778,4.123,1.736,5.968,2.875c1.845,1.14,3.616,2.451,5.316,3.934l-1.519,2.387
		c-0.507,0.868-1.267,1.067-2.278,0.597c-0.543-0.217-1.321-0.723-2.333-1.519c-1.013-0.795-2.406-1.628-4.178-2.496
		c-1.772-0.867-3.97-1.645-6.591-2.332c-2.623-0.688-5.814-1.031-9.575-1.031c-4.991,0-9.503,0.796-13.535,2.387
		c-4.033,1.592-7.469,3.871-10.308,6.836c-2.84,2.966-5.027,6.583-6.564,10.85c-1.538,4.269-2.306,9.061-2.306,14.377
		c0,5.389,0.768,10.235,2.306,14.539c1.537,4.305,3.761,7.957,6.673,10.958c2.911,3.003,6.446,5.299,10.605,6.89
		c4.159,1.592,8.843,2.387,14.051,2.387c2.278,0,4.385-0.144,6.32-0.434c1.935-0.289,3.779-0.695,5.533-1.221
		c1.754-0.523,3.454-1.175,5.1-1.953c1.646-0.777,3.318-1.654,5.019-2.631v-20.67h-14.702c-0.398,0-0.732-0.125-1.004-0.379
		c-0.271-0.253-0.406-0.543-0.406-0.868v-3.038H379.213z"/>
	<path fill="#767676" d="M396.355,506.022v1.03c0,4.051,0.47,7.614,1.411,10.688c0.939,3.074,2.278,5.652,4.014,7.73
		c1.736,2.08,3.834,3.645,6.294,4.693c2.459,1.049,5.208,1.572,8.245,1.572c2.713,0,5.063-0.298,7.053-0.895
		s3.662-1.266,5.019-2.008c1.356-0.74,2.432-1.41,3.228-2.006c0.795-0.598,1.374-0.896,1.736-0.896c0.47,0,0.831,0.182,1.085,0.543
		l1.41,1.736c-0.868,1.085-2.017,2.098-3.444,3.038c-1.43,0.94-3.021,1.745-4.774,2.414c-1.755,0.669-3.635,1.202-5.642,1.601
		c-2.008,0.396-4.024,0.596-6.049,0.596c-3.689,0-7.053-0.643-10.091-1.926s-5.643-3.154-7.813-5.614
		c-2.17-2.459-3.843-5.47-5.018-9.032c-1.176-3.563-1.764-7.641-1.764-12.234c0-3.869,0.552-7.439,1.655-10.714
		c1.103-3.272,2.693-6.094,4.773-8.463c2.08-2.368,4.629-4.222,7.649-5.561c3.02-1.338,6.446-2.007,10.28-2.007
		c3.038,0,5.859,0.523,8.463,1.572c2.604,1.05,4.864,2.577,6.781,4.584c1.917,2.008,3.427,4.477,4.53,7.406
		c1.103,2.929,1.654,6.293,1.654,10.09c0,0.796-0.108,1.338-0.325,1.627c-0.217,0.291-0.579,0.435-1.085,0.435H396.355z
		 M432.378,502.713c0-2.893-0.407-5.487-1.221-7.785c-0.813-2.295-1.963-4.239-3.445-5.831c-1.483-1.591-3.246-2.812-5.289-3.662
		c-2.044-0.849-4.295-1.274-6.754-1.274c-2.785,0-5.281,0.434-7.486,1.302c-2.207,0.868-4.115,2.116-5.724,3.743
		c-1.609,1.627-2.902,3.58-3.879,5.859c-0.977,2.278-1.628,4.828-1.953,7.648H432.378z"/>
	<path fill="#767676" d="M472.469,480.309c3.869,0,7.332,0.66,10.389,1.979c3.056,1.321,5.633,3.192,7.73,5.614
		c2.098,2.424,3.698,5.344,4.802,8.762c1.103,3.418,1.654,7.242,1.654,11.475c0,4.23-0.552,8.047-1.654,11.446
		c-1.104,3.399-2.704,6.312-4.802,8.734s-4.675,4.286-7.73,5.588c-3.057,1.302-6.52,1.952-10.389,1.952
		c-3.87,0-7.333-0.65-10.389-1.952c-3.057-1.302-5.643-3.165-7.758-5.588c-2.116-2.423-3.726-5.335-4.828-8.734
		c-1.104-3.399-1.655-7.216-1.655-11.446c0-4.232,0.552-8.057,1.655-11.475c1.103-3.418,2.712-6.338,4.828-8.762
		c2.115-2.422,4.701-4.293,7.758-5.614C465.136,480.969,468.599,480.309,472.469,480.309z M472.469,531.791
		c3.219,0,6.03-0.551,8.436-1.654s4.412-2.686,6.022-4.747c1.608-2.062,2.812-4.548,3.607-7.46c0.795-2.91,1.193-6.174,1.193-9.791
		c0-3.581-0.398-6.836-1.193-9.766c-0.796-2.93-1.999-5.434-3.607-7.514c-1.61-2.079-3.617-3.68-6.022-4.801
		s-5.217-1.682-8.436-1.682c-3.22,0-6.031,0.561-8.436,1.682c-2.406,1.121-4.413,2.722-6.022,4.801
		c-1.609,2.08-2.82,4.584-3.635,7.514c-0.813,2.93-1.22,6.185-1.22,9.766c0,3.617,0.406,6.881,1.22,9.791
		c0.814,2.912,2.025,5.398,3.635,7.46s3.616,3.644,6.022,4.747C466.438,531.24,469.249,531.791,472.469,531.791z"/>
	<path fill="#767676" d="M516.574,494.195c0.831-2.205,1.78-4.167,2.848-5.885c1.066-1.718,2.297-3.174,3.689-4.367
		c1.392-1.193,2.947-2.107,4.665-2.74s3.626-0.949,5.724-0.949c1.12,0,2.225,0.1,3.31,0.299s2.043,0.551,2.875,1.057l-0.435,3.581
		c-0.181,0.579-0.524,0.868-1.03,0.868c-0.434,0-1.095-0.127-1.98-0.38c-0.887-0.253-2.053-0.38-3.499-0.38
		c-2.098,0-3.951,0.317-5.561,0.949c-1.609,0.634-3.057,1.583-4.34,2.849c-1.284,1.267-2.405,2.83-3.363,4.692
		c-0.959,1.863-1.836,4.006-2.631,6.429v34.937h-5.208v-53.979h2.767c0.614,0,1.048,0.127,1.302,0.38
		c0.253,0.253,0.415,0.688,0.488,1.302L516.574,494.195z"/>
	<path fill="#767676" d="M591.385,483.563v1.791c0,0.796-0.507,1.284-1.52,1.465l-8.246,0.596c1.013,1.375,1.791,2.912,2.333,4.611
		c0.543,1.701,0.813,3.545,0.813,5.534c0,2.604-0.461,4.964-1.383,7.079c-0.923,2.116-2.225,3.926-3.906,5.426
		c-1.682,1.501-3.708,2.668-6.076,3.499c-2.369,0.832-4.982,1.247-7.839,1.247c-3.074,0-5.878-0.469-8.409-1.41
		c-1.519,0.868-2.722,1.891-3.607,3.065c-0.887,1.176-1.329,2.342-1.329,3.499c0,1.555,0.551,2.749,1.654,3.58
		c1.104,0.832,2.55,1.438,4.341,1.818c1.79,0.379,3.833,0.623,6.13,0.732c2.296,0.107,4.639,0.226,7.025,0.352
		c2.387,0.127,4.729,0.354,7.025,0.679c2.296,0.325,4.34,0.896,6.13,1.708c1.791,0.814,3.236,1.953,4.341,3.418
		c1.103,1.465,1.654,3.408,1.654,5.832c0,2.242-0.562,4.395-1.682,6.456c-1.122,2.062-2.74,3.888-4.855,5.479
		c-2.116,1.591-4.675,2.865-7.677,3.824c-3.002,0.958-6.365,1.438-10.09,1.438c-3.798,0-7.126-0.389-9.982-1.166
		c-2.857-0.778-5.254-1.826-7.188-3.146s-3.391-2.848-4.367-4.584s-1.464-3.58-1.464-5.533c0-2.857,0.939-5.309,2.82-7.352
		c1.88-2.043,4.448-3.643,7.704-4.801c-1.81-0.615-3.265-1.51-4.367-2.686c-1.104-1.175-1.655-2.775-1.655-4.801
		c0-0.76,0.145-1.555,0.435-2.387c0.289-0.832,0.723-1.655,1.302-2.469c0.578-0.814,1.283-1.582,2.116-2.306
		c0.831-0.724,1.771-1.374,2.82-1.953c-2.568-1.482-4.566-3.454-5.994-5.913c-1.43-2.459-2.144-5.334-2.144-8.626
		c0-2.604,0.462-4.964,1.384-7.079c0.922-2.116,2.232-3.934,3.934-5.453c1.699-1.519,3.733-2.693,6.103-3.525
		c2.368-0.832,5-1.248,7.894-1.248c2.387,0,4.584,0.289,6.591,0.867c2.008,0.58,3.807,1.394,5.398,2.441H591.385z M585.742,538.789
		c0-1.699-0.443-3.064-1.329-4.096c-0.887-1.03-2.07-1.835-3.553-2.414c-1.483-0.578-3.192-0.984-5.127-1.221
		c-1.936-0.234-3.96-0.406-6.076-0.516c-2.115-0.107-4.241-0.217-6.374-0.324c-2.135-0.109-4.142-0.326-6.022-0.652
		c-1.374,0.543-2.64,1.167-3.797,1.872c-1.158,0.706-2.152,1.511-2.984,2.415s-1.483,1.889-1.952,2.956
		c-0.471,1.066-0.706,2.215-0.706,3.444c0,1.592,0.407,3.065,1.221,4.422c0.814,1.355,2.008,2.531,3.581,3.526
		c1.573,0.994,3.499,1.78,5.777,2.36c2.278,0.577,4.9,0.867,7.866,0.867c2.748,0,5.308-0.308,7.677-0.922
		c2.368-0.615,4.43-1.484,6.185-2.604c1.754-1.121,3.128-2.46,4.123-4.015C585.245,542.334,585.742,540.635,585.742,538.789z
		 M565.562,511.285c2.314,0,4.376-0.334,6.185-1.004c1.808-0.669,3.327-1.601,4.557-2.794s2.17-2.622,2.821-4.286
		c0.651-1.662,0.977-3.508,0.977-5.533s-0.335-3.879-1.004-5.561c-0.67-1.682-1.627-3.119-2.875-4.313s-2.767-2.116-4.557-2.768
		c-1.791-0.65-3.825-0.977-6.104-0.977s-4.313,0.326-6.104,0.977c-1.79,0.651-3.309,1.574-4.557,2.768s-2.197,2.631-2.849,4.313
		c-0.65,1.682-0.976,3.535-0.976,5.561s0.325,3.871,0.976,5.533c0.651,1.664,1.601,3.093,2.849,4.286s2.767,2.125,4.557,2.794
		C561.249,510.951,563.283,511.285,565.562,511.285z"/>
	<path fill="#767676" d="M604.459,506.022v1.03c0,4.051,0.47,7.614,1.411,10.688c0.939,3.074,2.278,5.652,4.014,7.73
		c1.736,2.08,3.834,3.645,6.294,4.693c2.459,1.049,5.208,1.572,8.245,1.572c2.713,0,5.063-0.298,7.053-0.895
		s3.662-1.266,5.019-2.008c1.356-0.74,2.432-1.41,3.228-2.006c0.795-0.598,1.374-0.896,1.736-0.896c0.47,0,0.831,0.182,1.085,0.543
		l1.41,1.736c-0.868,1.085-2.017,2.098-3.444,3.038c-1.43,0.94-3.021,1.745-4.774,2.414c-1.755,0.669-3.635,1.202-5.642,1.601
		c-2.008,0.396-4.024,0.596-6.049,0.596c-3.689,0-7.053-0.643-10.091-1.926s-5.643-3.154-7.813-5.614
		c-2.17-2.459-3.843-5.47-5.018-9.032c-1.176-3.563-1.764-7.641-1.764-12.234c0-3.869,0.552-7.439,1.655-10.714
		c1.103-3.272,2.693-6.094,4.773-8.463c2.08-2.368,4.629-4.222,7.649-5.561c3.02-1.338,6.446-2.007,10.28-2.007
		c3.038,0,5.859,0.523,8.463,1.572c2.604,1.05,4.864,2.577,6.781,4.584c1.917,2.008,3.427,4.477,4.53,7.406
		c1.103,2.929,1.654,6.293,1.654,10.09c0,0.796-0.108,1.338-0.325,1.627c-0.217,0.291-0.579,0.435-1.085,0.435H604.459z
		 M640.481,502.713c0-2.893-0.407-5.487-1.221-7.785c-0.813-2.295-1.963-4.239-3.445-5.831c-1.483-1.591-3.246-2.812-5.289-3.662
		c-2.044-0.849-4.295-1.274-6.754-1.274c-2.785,0-5.281,0.434-7.486,1.302c-2.207,0.868-4.115,2.116-5.724,3.743
		c-1.609,1.627-2.902,3.58-3.879,5.859c-0.977,2.278-1.628,4.828-1.953,7.648H640.481z"/>
	<path fill="#767676" d="M737.752,463.111H710.79v72.043h-5.588v-72.043h-27.125v-4.721h59.675V463.111z"/>
	<path fill="#767676" d="M756.089,480.309c3.869,0,7.332,0.66,10.389,1.979c3.056,1.321,5.633,3.192,7.73,5.614
		c2.098,2.424,3.698,5.344,4.802,8.762c1.103,3.418,1.654,7.242,1.654,11.475c0,4.23-0.552,8.047-1.654,11.446
		c-1.104,3.399-2.704,6.312-4.802,8.734s-4.675,4.286-7.73,5.588c-3.057,1.302-6.52,1.952-10.389,1.952
		c-3.87,0-7.333-0.65-10.389-1.952c-3.057-1.302-5.643-3.165-7.758-5.588c-2.116-2.423-3.726-5.335-4.828-8.734
		c-1.104-3.399-1.655-7.216-1.655-11.446c0-4.232,0.552-8.057,1.655-11.475c1.103-3.418,2.712-6.338,4.828-8.762
		c2.115-2.422,4.701-4.293,7.758-5.614C748.756,480.969,752.219,480.309,756.089,480.309z M756.089,531.791
		c3.219,0,6.03-0.551,8.436-1.654s4.412-2.686,6.022-4.747c1.608-2.062,2.812-4.548,3.607-7.46c0.795-2.91,1.193-6.174,1.193-9.791
		c0-3.581-0.398-6.836-1.193-9.766c-0.796-2.93-1.999-5.434-3.607-7.514c-1.61-2.079-3.617-3.68-6.022-4.801
		s-5.217-1.682-8.436-1.682c-3.22,0-6.031,0.561-8.436,1.682c-2.406,1.121-4.413,2.722-6.022,4.801
		c-1.609,2.08-2.82,4.584-3.635,7.514c-0.813,2.93-1.22,6.185-1.22,9.766c0,3.617,0.406,6.881,1.22,9.791
		c0.814,2.912,2.025,5.398,3.635,7.46s3.616,3.644,6.022,4.747C750.058,531.24,752.869,531.791,756.089,531.791z"/>
	<path fill="#767676" d="M865.945,481.176l-18.011,53.979h-3.852c-0.615,0-1.031-0.379-1.248-1.139l-14.756-43.834
		c-0.182-0.543-0.344-1.085-0.488-1.627c-0.145-0.543-0.271-1.086-0.38-1.628c-0.181,1.085-0.452,2.17-0.813,3.255l-14.973,43.834
		c-0.218,0.76-0.651,1.139-1.303,1.139h-3.688l-18.011-53.979h3.905c0.507,0,0.923,0.136,1.248,0.407
		c0.325,0.271,0.543,0.569,0.651,0.896l13.616,42.586c0.217,0.832,0.416,1.637,0.597,2.414s0.326,1.546,0.435,2.306
		c0.217-0.76,0.434-1.528,0.65-2.306c0.218-0.777,0.47-1.582,0.76-2.414l14.431-42.967c0.253-0.795,0.76-1.193,1.519-1.193h2.116
		c0.795,0,1.319,0.398,1.573,1.193l14.322,42.967c0.252,0.832,0.488,1.627,0.705,2.387s0.415,1.52,0.597,2.279
		c0.144-0.76,0.298-1.52,0.461-2.279s0.37-1.555,0.624-2.387l13.726-42.586c0.144-0.398,0.379-0.715,0.705-0.949
		c0.325-0.235,0.705-0.354,1.139-0.354H865.945z"/>
	<path fill="#767676" d="M882.492,490.615c2.495-3.109,5.379-5.605,8.652-7.486c3.273-1.88,6.917-2.82,10.932-2.82
		c2.965,0,5.578,0.47,7.839,1.41c2.26,0.941,4.132,2.297,5.615,4.068c1.482,1.772,2.604,3.906,3.363,6.402
		c0.76,2.494,1.14,5.316,1.14,8.463v34.502h-5.208v-34.502c0-5.063-1.158-9.033-3.473-11.908s-5.841-4.313-10.578-4.313
		c-3.509,0-6.791,0.895-9.847,2.685c-3.057,1.79-5.777,4.277-8.164,7.46v40.578h-5.208v-53.979h2.875
		c0.903,0,1.428,0.453,1.573,1.356L882.492,490.615z"/>
	<path fill="#767676" d="M1011.715,530.272c0.578,0,1.03,0.172,1.355,0.515c0.326,0.345,0.488,0.787,0.488,1.33v3.037h-49.53v-1.844
		c0-0.398,0.1-0.805,0.299-1.221c0.198-0.416,0.461-0.768,0.787-1.059l26.202-26.527c2.17-2.206,4.178-4.34,6.021-6.402
		c1.845-2.061,3.445-4.141,4.802-6.238s2.414-4.25,3.174-6.455c0.759-2.206,1.139-4.558,1.139-7.053c0-2.821-0.471-5.271-1.41-7.352
		c-0.941-2.079-2.188-3.788-3.743-5.127c-1.556-1.337-3.364-2.332-5.425-2.983c-2.062-0.651-4.196-0.976-6.402-0.976
		c-2.423,0-4.656,0.371-6.699,1.111c-2.044,0.742-3.852,1.772-5.426,3.092c-1.573,1.321-2.875,2.895-3.905,4.721
		c-1.031,1.826-1.745,3.824-2.144,5.994c-0.253,0.796-0.588,1.32-1.003,1.573c-0.416,0.253-0.986,0.345-1.709,0.271l-2.658-0.435
		c0.47-3.29,1.374-6.22,2.712-8.788c1.338-2.567,3.038-4.737,5.1-6.51s4.449-3.12,7.161-4.042c2.713-0.922,5.643-1.383,8.789-1.383
		c2.929,0,5.723,0.426,8.381,1.274c2.658,0.851,5.009,2.134,7.053,3.853c2.043,1.717,3.662,3.869,4.855,6.455s1.79,5.615,1.79,9.087
		c0,2.894-0.443,5.579-1.329,8.056c-0.887,2.479-2.089,4.855-3.607,7.135c-1.519,2.277-3.282,4.494-5.289,6.645
		c-2.008,2.152-4.115,4.35-6.32,6.592l-24.033,24.521c1.157-0.289,2.36-0.506,3.608-0.651c1.247-0.144,2.504-0.217,3.77-0.217
		H1011.715z"/>
	<path fill="#767676" d="M1079.688,496.746c0,6.727-0.724,12.551-2.17,17.469c-1.447,4.918-3.418,8.987-5.913,12.205
		c-2.496,3.221-5.417,5.615-8.762,7.189c-3.346,1.572-6.917,2.359-10.714,2.359c-3.798,0-7.36-0.787-10.688-2.359
		c-3.328-1.574-6.239-3.969-8.734-7.189c-2.495-3.218-4.458-7.287-5.886-12.205c-1.43-4.918-2.144-10.742-2.144-17.469
		c0-6.728,0.714-12.55,2.144-17.469c1.428-4.918,3.391-8.986,5.886-12.207c2.495-3.218,5.406-5.614,8.734-7.188
		c3.327-1.573,6.89-2.359,10.688-2.359c3.797,0,7.368,0.786,10.714,2.359c3.345,1.573,6.266,3.97,8.762,7.188
		c2.495,3.221,4.466,7.289,5.913,12.207C1078.965,484.196,1079.688,490.019,1079.688,496.746z M1074.264,496.746
		c0-6.221-0.597-11.537-1.79-15.949c-1.194-4.412-2.794-8.021-4.802-10.823c-2.007-2.803-4.358-4.855-7.053-6.157
		c-2.694-1.303-5.524-1.953-8.489-1.953c-2.967,0-5.787,0.65-8.464,1.953c-2.677,1.302-5.027,3.354-7.052,6.157
		c-2.026,2.803-3.635,6.411-4.828,10.823c-1.194,4.412-1.791,9.729-1.791,15.949c0,6.258,0.597,11.582,1.791,15.977
		c1.193,4.395,2.802,7.993,4.828,10.795c2.024,2.804,4.375,4.848,7.052,6.131c2.677,1.284,5.497,1.926,8.464,1.926
		c2.965,0,5.795-0.642,8.489-1.926c2.694-1.283,5.046-3.327,7.053-6.131c2.008-2.802,3.607-6.4,4.802-10.795
		C1073.667,508.328,1074.264,503.004,1074.264,496.746z"/>
	<path fill="#767676" d="M1137.734,531.141v4.014h-39.603v-4.014h17.632v-62.279c0-1.229,0.054-2.531,0.162-3.906L1099,479.982
		c-0.507,0.434-1.013,0.597-1.519,0.488c-0.507-0.108-0.904-0.325-1.193-0.65l-1.573-2.17l22.188-19.585h4.069v73.075H1137.734z"/>
	<path fill="#767676" d="M1204.461,458.391v2.333c0,0.616-0.073,1.149-0.217,1.601c-0.146,0.453-0.308,0.841-0.488,1.166
		l-35.154,69.711c-0.29,0.58-0.678,1.05-1.166,1.411c-0.488,0.362-1.131,0.542-1.926,0.542h-3.581l35.479-69.439
		c0.47-0.939,1.031-1.791,1.682-2.55h-44.268c-0.398,0-0.742-0.144-1.031-0.435c-0.289-0.289-0.434-0.632-0.434-1.03v-3.31H1204.461
		z"/>
	<polygon fill="#FFC107" points="258.871,394.875 247.897,375.89 221.552,421.438 244.108,421.438 259.172,395.393 	"/>
	<polygon fill="#0F9D58" points="236.025,355.365 247.897,375.89 221.551,421.439 197.807,421.439 	"/>
	<polygon fill="#4285F4" points="221.551,289.292 197.807,289.292 259.172,395.393 271.035,374.877 271.045,374.856 	"/>
	<path fill="#DB4437" d="M278.735,361.558c2.222-3.83,2.222-8.557,0-12.388l-34.626-59.879h-22.559l49.494,85.566L278.735,361.558z"
		/>
	<path fill="#777777" d="M311.572,402.35v-91.077h27.856c13.908,0,25.079,4.198,33.519,12.593
		c8.437,8.395,12.656,19.379,12.656,32.946c0,13.654-4.22,24.657-12.656,33.009c-8.439,8.353-19.61,12.529-33.519,12.529H311.572z
		 M323.275,322.467v68.689h16.153c10.601,0,18.953-3.031,25.06-9.095c6.104-6.062,9.158-14.479,9.158-25.249
		c0-10.685-3.054-19.081-9.158-25.186c-6.106-6.106-14.459-9.159-25.06-9.159H323.275z"/>
	<path fill="#777777" d="M423.508,404.385c-9.158,0-16.707-3.137-22.641-9.413c-5.938-6.275-8.905-14.203-8.905-23.787
		c0-9.496,2.882-17.405,8.649-23.723c5.767-6.317,13.144-9.477,22.135-9.477c9.242,0,16.6,2.989,22.068,8.968
		c5.471,5.978,8.205,14.354,8.205,25.123l-0.127,1.271h-48.974c0.169,6.106,2.204,11.025,6.106,14.756
		c3.898,3.732,8.563,5.597,13.992,5.597c7.461,0,13.313-3.731,17.553-11.194l10.431,5.088c-2.797,5.259-6.677,9.371-11.638,12.338
		C435.402,402.9,429.783,404.385,423.508,404.385 M404.811,363.68h35.742c-0.34-4.325-2.098-7.906-5.277-10.749
		c-3.182-2.84-7.442-4.261-12.784-4.261c-4.41,0-8.204,1.358-11.386,4.071C407.926,355.456,405.828,359.101,404.811,363.68"/>
	<polygon fill="#777777" points="492.707,402.35 481.004,402.35 455.817,340.021 468.537,340.021 486.854,388.358 487.109,388.358 
		505.682,340.021 518.146,340.021 	"/>
	<polygon fill="#777777" points="539.516,363.299 539.516,402.35 527.813,402.35 527.813,311.273 580.982,311.273 580.982,322.467 
		539.516,322.467 539.516,352.36 576.912,352.36 576.912,363.299 	"/>
	<path fill="#777777" d="M616.344,404.385c-9.158,0-16.707-3.137-22.642-9.413c-5.937-6.275-8.905-14.203-8.905-23.787
		c0-9.496,2.883-17.405,8.65-23.723c5.766-6.317,13.143-9.477,22.134-9.477c9.241,0,16.599,2.989,22.069,8.968
		c5.47,5.978,8.203,14.354,8.203,25.123l-0.127,1.271h-48.973c0.169,6.106,2.204,11.025,6.105,14.756
		c3.899,3.732,8.564,5.597,13.992,5.597c7.463,0,13.313-3.731,17.555-11.194l10.43,5.088c-2.797,5.259-6.677,9.371-11.639,12.338
		C628.236,402.9,622.618,404.385,616.344,404.385 M597.645,363.68h35.744c-0.341-4.325-2.099-7.906-5.279-10.749
		c-3.18-2.84-7.441-4.261-12.783-4.261c-4.41,0-8.204,1.358-11.385,4.071C600.762,355.456,598.663,359.101,597.645,363.68"/>
	<path fill="#777777" d="M704.875,385.05c0,5.428-2.375,10.007-7.125,13.738c-4.75,3.729-10.729,5.596-17.935,5.596
		c-6.276,0-11.788-1.633-16.537-4.896c-4.75-3.264-8.14-7.569-10.175-12.912l10.43-4.452c1.527,3.733,3.754,6.636,6.678,8.714
		c2.927,2.079,6.127,3.116,9.604,3.116c3.731,0,6.847-0.805,9.349-2.417c2.502-1.61,3.754-3.518,3.754-5.724
		c0-3.985-3.053-6.91-9.16-8.777l-10.684-2.671c-12.129-3.053-18.189-8.904-18.189-17.554c0-5.68,2.309-10.24,6.932-13.674
		c4.62-3.435,10.536-5.152,17.745-5.152c5.511,0,10.494,1.316,14.946,3.943c4.451,2.63,7.568,6.15,9.349,10.558l-10.431,4.325
		c-1.188-2.627-3.115-4.684-5.787-6.169c-2.672-1.483-5.66-2.226-8.969-2.226c-3.053,0-5.787,0.763-8.203,2.289
		c-2.418,1.527-3.625,3.393-3.625,5.597c0,3.562,3.348,6.106,10.049,7.632l9.412,2.417
		C698.684,369.404,704.875,375.637,704.875,385.05"/>
	<path fill="#777777" d="M739.092,403.367c-5.09,0-9.309-1.568-12.658-4.707c-3.35-3.136-5.068-7.504-5.151-13.101v-34.854h-10.938
		V340.02h10.938v-19.08h11.703v19.08h15.265v10.685h-15.265v31.038c0,4.156,0.806,6.976,2.417,8.458
		c1.609,1.485,3.434,2.227,5.469,2.227c0.934,0,1.846-0.105,2.736-0.318c0.889-0.211,1.716-0.487,2.48-0.827l3.688,10.43
		C746.723,402.814,743.161,403.367,739.092,403.367"/>
	<polygon fill="#777777" points="843.139,363.044 843.139,372.711 820.116,372.711 820.116,395.735 810.448,395.735 
		810.448,372.711 787.424,372.711 787.424,363.044 810.448,363.044 810.448,340.021 820.116,340.021 820.116,363.044 	"/>
	<path fill="#777777" d="M1015.408,402.35v-91.077h27.856c13.908,0,25.079,4.198,33.519,12.593
		c8.437,8.395,12.656,19.379,12.656,32.946c0,13.654-4.22,24.657-12.656,33.009c-8.439,8.353-19.61,12.529-33.519,12.529H1015.408z
		 M1027.111,322.467v68.689h16.153c10.601,0,18.953-3.031,25.06-9.095c6.104-6.062,9.158-14.479,9.158-25.249
		c0-10.685-3.054-19.081-9.158-25.186c-6.106-6.106-14.459-9.159-25.06-9.159H1027.111z"/>
	<path fill="#777777" d="M1124.928,337.986c8.65,0,15.475,2.311,20.48,6.932c5.002,4.623,7.504,10.962,7.504,19.017v38.415h-11.193
		v-8.65h-0.51c-4.832,7.124-11.279,10.685-19.334,10.685c-6.869,0-12.615-2.035-17.235-6.105c-4.623-4.071-6.933-9.159-6.933-15.264
		c0-6.444,2.437-11.576,7.313-15.392c4.875-3.816,11.386-5.724,19.526-5.724c6.951,0,12.677,1.272,17.172,3.816v-2.671
		c0-4.071-1.612-7.525-4.834-10.367c-3.225-2.841-6.995-4.262-11.321-4.262c-6.53,0-11.703,2.757-15.519,8.269l-10.303-6.488
		C1105.422,342.057,1113.817,337.986,1124.928,337.986 M1109.791,383.27c0,3.053,1.291,5.597,3.879,7.632
		c2.586,2.035,5.617,3.053,9.096,3.053c4.917,0,9.305-1.823,13.166-5.47c3.857-3.646,5.787-7.928,5.787-12.847
		c-3.647-2.882-8.736-4.325-15.264-4.325c-4.752,0-8.715,1.144-11.894,3.435C1111.381,377.037,1109.791,379.878,1109.791,383.27"/>
	<polygon fill="#777777" points="1220.585,340.021 1181.533,429.826 1169.448,429.826 1183.949,398.407 1158.256,340.021 
		1170.976,340.021 1189.548,384.795 1189.802,384.795 1207.863,340.021 	"/>
	<path fill="#4285F4" d="M1001.449,355.226c0-3.979-0.365-7.806-1.022-11.479H947.57v21.712h30.203
		c-1.303,7.016-5.256,12.959-11.199,16.936v14.078h18.142C995.322,386.705,1001.449,372.316,1001.449,355.226"/>
	<path fill="#34A853" d="M947.57,410.07c15.149,0,27.853-5.023,37.146-13.597l-18.142-14.078
		c-5.023,3.366-11.453,5.352-19.004,5.352c-14.615,0-26.988-9.865-31.403-23.134h-18.749v14.542
		C906.648,397.496,925.635,410.07,947.57,410.07"/>
	<path fill="#FBBC05" d="M916.166,364.613c-1.121-3.367-1.76-6.959-1.76-10.662c0-3.7,0.639-7.295,1.76-10.662v-14.542h-18.748
		c-3.801,7.578-5.969,16.148-5.969,25.204c0,9.056,2.168,17.622,5.969,25.204L916.166,364.613z"/>
	<path fill="#EA4335" d="M947.57,320.151c8.238,0,15.637,2.833,21.451,8.391l16.096-16.094
		c-9.719-9.058-22.422-14.617-37.547-14.617c-21.936,0-40.922,12.574-50.152,30.916l18.749,14.542
		C920.582,330.022,932.955,320.151,947.57,320.151"/>
</g>
<g id="Layer_2" display="none">
	<path display="inline" fill="#767676" d="M378.945,500.033v27.289c-3.834,2.712-7.92,4.792-12.261,6.238
		c-4.34,1.445-9.222,2.17-14.647,2.17c-6.075,0-11.537-0.931-16.383-2.794c-4.848-1.862-8.979-4.503-12.396-7.921
		s-6.04-7.549-7.866-12.396c-1.827-4.846-2.739-10.234-2.739-16.166c0-5.931,0.895-11.311,2.685-16.139
		c1.791-4.828,4.358-8.951,7.704-12.369c3.345-3.418,7.387-6.058,12.125-7.921c4.737-1.862,10.071-2.794,16.004-2.794
		c2.929,0,5.632,0.199,8.11,0.597c2.477,0.398,4.782,0.985,6.916,1.763c2.134,0.779,4.123,1.736,5.968,2.876s3.616,2.45,5.316,3.933
		l-1.519,2.387c-0.507,0.869-1.267,1.068-2.278,0.598c-0.543-0.217-1.321-0.723-2.333-1.52c-1.013-0.795-2.406-1.627-4.178-2.495
		c-1.772-0.868-3.97-1.646-6.591-2.333c-2.623-0.687-5.814-1.031-9.575-1.031c-4.991,0-9.503,0.797-13.535,2.388
		c-4.033,1.592-7.469,3.87-10.308,6.835c-2.84,2.967-5.027,6.584-6.564,10.851c-1.538,4.269-2.306,9.06-2.306,14.376
		c0,5.39,0.768,10.236,2.306,14.539c1.537,4.305,3.761,7.957,6.673,10.959c2.911,3.002,6.446,5.299,10.605,6.889
		c4.159,1.593,8.843,2.388,14.051,2.388c2.278,0,4.385-0.144,6.32-0.435c1.935-0.289,3.779-0.695,5.533-1.221
		c1.754-0.523,3.454-1.174,5.1-1.952c1.646-0.777,3.318-1.655,5.019-2.632v-20.669h-14.702c-0.398,0-0.732-0.126-1.004-0.38
		c-0.271-0.252-0.406-0.542-0.406-0.867v-3.039H378.945z"/>
	<path display="inline" fill="#767676" d="M396.088,505.73v1.03c0,4.051,0.47,7.614,1.411,10.688
		c0.939,3.074,2.278,5.651,4.014,7.73c1.736,2.08,3.834,3.644,6.294,4.692c2.459,1.05,5.208,1.573,8.245,1.573
		c2.713,0,5.063-0.298,7.053-0.896c1.989-0.596,3.662-1.266,5.019-2.007s2.432-1.41,3.228-2.007
		c0.795-0.598,1.374-0.896,1.736-0.896c0.47,0,0.831,0.182,1.085,0.542l1.41,1.736c-0.868,1.086-2.017,2.098-3.444,3.039
		c-1.43,0.939-3.021,1.744-4.774,2.414c-1.755,0.669-3.635,1.202-5.642,1.6c-2.008,0.397-4.024,0.597-6.049,0.597
		c-3.689,0-7.053-0.643-10.091-1.926s-5.643-3.155-7.813-5.614s-3.843-5.471-5.018-9.033c-1.176-3.563-1.764-7.64-1.764-12.233
		c0-3.87,0.552-7.44,1.655-10.714c1.103-3.273,2.693-6.094,4.773-8.463s4.629-4.223,7.649-5.561c3.02-1.338,6.446-2.008,10.28-2.008
		c3.038,0,5.859,0.524,8.463,1.573c2.604,1.05,4.864,2.577,6.781,4.584s3.427,4.476,4.53,7.405c1.103,2.93,1.654,6.293,1.654,10.09
		c0,0.797-0.108,1.339-0.325,1.628c-0.217,0.29-0.579,0.435-1.085,0.435H396.088z M432.11,502.421c0-2.894-0.407-5.487-1.221-7.785
		c-0.813-2.296-1.963-4.239-3.445-5.831c-1.483-1.592-3.246-2.813-5.289-3.662c-2.044-0.85-4.295-1.275-6.754-1.275
		c-2.785,0-5.281,0.434-7.486,1.303c-2.207,0.867-4.115,2.115-5.724,3.742c-1.609,1.628-2.902,3.581-3.879,5.859
		c-0.977,2.279-1.628,4.828-1.953,7.649H432.11z"/>
	<path display="inline" fill="#767676" d="M472.201,480.016c3.869,0,7.332,0.66,10.389,1.98c3.056,1.32,5.633,3.191,7.73,5.614
		c2.098,2.424,3.698,5.344,4.802,8.762c1.103,3.417,1.654,7.242,1.654,11.474s-0.552,8.048-1.654,11.447
		c-1.104,3.399-2.704,6.311-4.802,8.734c-2.098,2.423-4.675,4.285-7.73,5.588c-3.057,1.301-6.52,1.952-10.389,1.952
		c-3.87,0-7.333-0.651-10.389-1.952c-3.057-1.303-5.643-3.165-7.758-5.588c-2.116-2.424-3.726-5.335-4.828-8.734
		c-1.104-3.399-1.655-7.216-1.655-11.447s0.552-8.057,1.655-11.474c1.103-3.418,2.712-6.338,4.828-8.762
		c2.115-2.423,4.701-4.294,7.758-5.614C464.868,480.676,468.331,480.016,472.201,480.016z M472.201,531.499
		c3.219,0,6.03-0.552,8.436-1.655c2.405-1.103,4.412-2.686,6.022-4.746c1.608-2.063,2.812-4.548,3.607-7.46
		c0.795-2.911,1.193-6.175,1.193-9.792c0-3.58-0.398-6.836-1.193-9.766c-0.796-2.929-1.999-5.433-3.607-7.513
		c-1.61-2.079-3.617-3.68-6.022-4.802c-2.405-1.12-5.217-1.682-8.436-1.682c-3.22,0-6.031,0.562-8.436,1.682
		c-2.406,1.122-4.413,2.723-6.022,4.802c-1.609,2.08-2.82,4.584-3.635,7.513c-0.813,2.93-1.22,6.186-1.22,9.766
		c0,3.617,0.406,6.881,1.22,9.792c0.814,2.912,2.025,5.397,3.635,7.46c1.609,2.061,3.616,3.644,6.022,4.746
		C466.17,530.947,468.981,531.499,472.201,531.499z"/>
	<path display="inline" fill="#767676" d="M516.307,493.903c0.831-2.206,1.78-4.167,2.848-5.886
		c1.066-1.717,2.297-3.174,3.689-4.367c1.392-1.193,2.947-2.106,4.665-2.74c1.718-0.632,3.626-0.949,5.724-0.949
		c1.12,0,2.225,0.101,3.31,0.299c1.085,0.199,2.043,0.552,2.875,1.058l-0.435,3.581c-0.181,0.578-0.524,0.867-1.03,0.867
		c-0.434,0-1.095-0.126-1.98-0.379c-0.887-0.253-2.053-0.381-3.499-0.381c-2.098,0-3.951,0.318-5.561,0.95
		c-1.609,0.634-3.057,1.583-4.34,2.849c-1.284,1.266-2.405,2.83-3.363,4.691c-0.959,1.863-1.836,4.007-2.631,6.43v34.937h-5.208
		v-53.979h2.767c0.614,0,1.048,0.127,1.302,0.38c0.253,0.253,0.415,0.688,0.488,1.302L516.307,493.903z"/>
	<path display="inline" fill="#767676" d="M591.117,483.271v1.79c0,0.797-0.507,1.285-1.52,1.465l-8.246,0.597
		c1.013,1.375,1.791,2.912,2.333,4.611c0.543,1.7,0.813,3.545,0.813,5.534c0,2.604-0.461,4.963-1.383,7.079
		c-0.923,2.116-2.225,3.925-3.906,5.425c-1.682,1.502-3.708,2.668-6.076,3.5c-2.369,0.832-4.982,1.247-7.839,1.247
		c-3.074,0-5.878-0.47-8.409-1.411c-1.519,0.869-2.722,1.891-3.607,3.066c-0.887,1.176-1.329,2.342-1.329,3.498
		c0,1.556,0.551,2.75,1.654,3.581c1.104,0.832,2.55,1.438,4.341,1.817c1.79,0.379,3.833,0.623,6.13,0.732
		c2.296,0.108,4.639,0.227,7.025,0.353c2.387,0.127,4.729,0.353,7.025,0.679c2.296,0.324,4.34,0.895,6.13,1.708
		c1.791,0.813,3.236,1.953,4.341,3.418c1.103,1.465,1.654,3.408,1.654,5.832c0,2.241-0.562,4.394-1.682,6.456
		c-1.122,2.061-2.74,3.887-4.855,5.479c-2.116,1.592-4.675,2.866-7.677,3.824c-3.002,0.959-6.365,1.438-10.09,1.438
		c-3.798,0-7.126-0.39-9.982-1.167c-2.857-0.777-5.254-1.826-7.188-3.146s-3.391-2.848-4.367-4.584s-1.464-3.58-1.464-5.533
		c0-2.857,0.939-5.309,2.82-7.352c1.88-2.042,4.448-3.643,7.704-4.801c-1.81-0.614-3.265-1.51-4.367-2.686
		c-1.104-1.174-1.655-2.775-1.655-4.801c0-0.76,0.145-1.555,0.435-2.387c0.289-0.832,0.723-1.654,1.302-2.469
		c0.578-0.813,1.283-1.582,2.116-2.305c0.831-0.724,1.771-1.375,2.82-1.953c-2.568-1.482-4.566-3.454-5.994-5.914
		c-1.43-2.459-2.144-5.334-2.144-8.625c0-2.604,0.462-4.965,1.384-7.08s2.232-3.934,3.934-5.452
		c1.699-1.519,3.733-2.694,6.103-3.526c2.368-0.832,5-1.248,7.894-1.248c2.387,0,4.584,0.29,6.591,0.868
		c2.008,0.579,3.807,1.394,5.398,2.441H591.117z M585.475,538.497c0-1.7-0.443-3.065-1.329-4.096
		c-0.887-1.03-2.07-1.835-3.553-2.415c-1.483-0.577-3.192-0.984-5.127-1.22c-1.936-0.235-3.96-0.407-6.076-0.516
		c-2.115-0.108-4.241-0.217-6.374-0.325c-2.135-0.109-4.142-0.326-6.022-0.651c-1.374,0.542-2.64,1.167-3.797,1.872
		c-1.158,0.705-2.152,1.51-2.984,2.414s-1.483,1.889-1.952,2.957c-0.471,1.066-0.706,2.215-0.706,3.444
		c0,1.591,0.407,3.065,1.221,4.421c0.814,1.356,2.008,2.531,3.581,3.527c1.573,0.994,3.499,1.78,5.777,2.359
		c2.278,0.578,4.9,0.867,7.866,0.867c2.748,0,5.308-0.307,7.677-0.922c2.368-0.615,4.43-1.483,6.185-2.604
		c1.754-1.121,3.128-2.46,4.123-4.015C584.978,542.041,585.475,540.342,585.475,538.497z M565.294,510.992
		c2.314,0,4.376-0.334,6.185-1.004c1.808-0.668,3.327-1.6,4.557-2.793s2.17-2.622,2.821-4.286c0.651-1.663,0.977-3.508,0.977-5.534
		c0-2.024-0.335-3.879-1.004-5.561c-0.67-1.682-1.627-3.119-2.875-4.313s-2.767-2.115-4.557-2.767
		c-1.791-0.651-3.825-0.977-6.104-0.977s-4.313,0.325-6.104,0.977c-1.79,0.651-3.309,1.573-4.557,2.767s-2.197,2.631-2.849,4.313
		c-0.65,1.682-0.976,3.536-0.976,5.561c0,2.026,0.325,3.871,0.976,5.534c0.651,1.664,1.601,3.093,2.849,4.286
		s2.767,2.125,4.557,2.793C560.981,510.658,563.016,510.992,565.294,510.992z"/>
	<path display="inline" fill="#767676" d="M604.191,505.73v1.03c0,4.051,0.47,7.614,1.411,10.688
		c0.939,3.074,2.278,5.651,4.014,7.73c1.736,2.08,3.834,3.644,6.294,4.692c2.459,1.05,5.208,1.573,8.245,1.573
		c2.713,0,5.063-0.298,7.053-0.896c1.989-0.596,3.662-1.266,5.019-2.007s2.432-1.41,3.228-2.007
		c0.795-0.598,1.374-0.896,1.736-0.896c0.47,0,0.831,0.182,1.085,0.542l1.41,1.736c-0.868,1.086-2.017,2.098-3.444,3.039
		c-1.43,0.939-3.021,1.744-4.774,2.414c-1.755,0.669-3.635,1.202-5.642,1.6c-2.008,0.397-4.024,0.597-6.049,0.597
		c-3.689,0-7.053-0.643-10.091-1.926s-5.643-3.155-7.813-5.614s-3.843-5.471-5.018-9.033c-1.176-3.563-1.764-7.64-1.764-12.233
		c0-3.87,0.552-7.44,1.655-10.714c1.103-3.273,2.693-6.094,4.773-8.463s4.629-4.223,7.649-5.561c3.02-1.338,6.446-2.008,10.28-2.008
		c3.038,0,5.859,0.524,8.463,1.573c2.604,1.05,4.864,2.577,6.781,4.584s3.427,4.476,4.53,7.405c1.103,2.93,1.654,6.293,1.654,10.09
		c0,0.797-0.108,1.339-0.325,1.628c-0.217,0.29-0.579,0.435-1.085,0.435H604.191z M640.214,502.421c0-2.894-0.407-5.487-1.221-7.785
		c-0.813-2.296-1.963-4.239-3.445-5.831c-1.483-1.592-3.246-2.813-5.289-3.662c-2.044-0.85-4.295-1.275-6.754-1.275
		c-2.785,0-5.281,0.434-7.486,1.303c-2.207,0.867-4.115,2.115-5.724,3.742c-1.609,1.628-2.902,3.581-3.879,5.859
		c-0.977,2.279-1.628,4.828-1.953,7.649H640.214z"/>
	<path display="inline" fill="#767676" d="M737.484,462.818h-26.962v72.044h-5.588v-72.044H677.81v-4.72h59.675V462.818z"/>
	<path display="inline" fill="#767676" d="M755.821,480.016c3.869,0,7.332,0.66,10.389,1.98c3.056,1.32,5.633,3.191,7.73,5.614
		c2.098,2.424,3.698,5.344,4.802,8.762c1.103,3.417,1.654,7.242,1.654,11.474s-0.552,8.048-1.654,11.447
		c-1.104,3.399-2.704,6.311-4.802,8.734c-2.098,2.423-4.675,4.285-7.73,5.588c-3.057,1.301-6.52,1.952-10.389,1.952
		c-3.87,0-7.333-0.651-10.389-1.952c-3.057-1.303-5.643-3.165-7.758-5.588c-2.116-2.424-3.726-5.335-4.828-8.734
		c-1.104-3.399-1.655-7.216-1.655-11.447s0.552-8.057,1.655-11.474c1.103-3.418,2.712-6.338,4.828-8.762
		c2.115-2.423,4.701-4.294,7.758-5.614C748.488,480.676,751.951,480.016,755.821,480.016z M755.821,531.499
		c3.219,0,6.03-0.552,8.436-1.655c2.405-1.103,4.412-2.686,6.022-4.746c1.608-2.063,2.812-4.548,3.607-7.46
		c0.795-2.911,1.193-6.175,1.193-9.792c0-3.58-0.398-6.836-1.193-9.766c-0.796-2.929-1.999-5.433-3.607-7.513
		c-1.61-2.079-3.617-3.68-6.022-4.802c-2.405-1.12-5.217-1.682-8.436-1.682c-3.22,0-6.031,0.562-8.436,1.682
		c-2.406,1.122-4.413,2.723-6.022,4.802c-1.609,2.08-2.82,4.584-3.635,7.513c-0.813,2.93-1.22,6.186-1.22,9.766
		c0,3.617,0.406,6.881,1.22,9.792c0.814,2.912,2.025,5.397,3.635,7.46c1.609,2.061,3.616,3.644,6.022,4.746
		C749.79,530.947,752.602,531.499,755.821,531.499z"/>
	<path display="inline" fill="#767676" d="M865.678,480.884l-18.011,53.979h-3.852c-0.615,0-1.031-0.38-1.248-1.14l-14.756-43.834
		c-0.182-0.542-0.344-1.084-0.488-1.627s-0.271-1.085-0.38-1.627c-0.181,1.084-0.452,2.17-0.813,3.254l-14.973,43.834
		c-0.218,0.76-0.651,1.14-1.303,1.14h-3.688l-18.011-53.979h3.905c0.507,0,0.923,0.136,1.248,0.407
		c0.325,0.271,0.543,0.568,0.651,0.895l13.616,42.586c0.217,0.832,0.416,1.637,0.597,2.414c0.181,0.778,0.326,1.547,0.435,2.307
		c0.217-0.76,0.434-1.528,0.65-2.307c0.218-0.777,0.47-1.582,0.76-2.414l14.431-42.966c0.253-0.795,0.76-1.193,1.519-1.193h2.116
		c0.795,0,1.319,0.398,1.573,1.193l14.322,42.966c0.252,0.832,0.488,1.628,0.705,2.387c0.217,0.76,0.415,1.52,0.597,2.279
		c0.144-0.76,0.298-1.52,0.461-2.279c0.163-0.759,0.37-1.555,0.624-2.387l13.726-42.586c0.144-0.397,0.379-0.714,0.705-0.949
		c0.325-0.234,0.705-0.353,1.139-0.353H865.678z"/>
	<path display="inline" fill="#767676" d="M882.225,490.323c2.495-3.11,5.379-5.606,8.652-7.487c3.273-1.879,6.917-2.82,10.932-2.82
		c2.965,0,5.578,0.471,7.839,1.41c2.26,0.941,4.132,2.297,5.615,4.068c1.482,1.773,2.604,3.906,3.363,6.402
		c0.76,2.495,1.14,5.316,1.14,8.463v34.503h-5.208v-34.503c0-5.063-1.158-9.033-3.473-11.908s-5.841-4.313-10.578-4.313
		c-3.509,0-6.791,0.895-9.847,2.686c-3.057,1.79-5.777,4.277-8.164,7.459v40.579h-5.208v-53.979h2.875
		c0.903,0,1.428,0.452,1.573,1.356L882.225,490.323z"/>
	<path display="inline" fill="#767676" d="M1011.447,529.98c0.578,0,1.03,0.172,1.355,0.515c0.326,0.345,0.488,0.786,0.488,1.329
		v3.038h-49.53v-1.845c0-0.397,0.1-0.805,0.299-1.221c0.198-0.415,0.461-0.768,0.787-1.058l26.202-26.528
		c2.17-2.205,4.178-4.34,6.021-6.401c1.845-2.062,3.445-4.141,4.802-6.239c1.356-2.097,2.414-4.249,3.174-6.455
		c0.759-2.205,1.139-4.557,1.139-7.053c0-2.82-0.471-5.271-1.41-7.351c-0.941-2.079-2.188-3.788-3.743-5.127
		c-1.556-1.337-3.364-2.333-5.425-2.983c-2.062-0.651-4.196-0.977-6.402-0.977c-2.423,0-4.656,0.371-6.699,1.111
		c-2.044,0.742-3.852,1.773-5.426,3.093c-1.573,1.321-2.875,2.894-3.905,4.72c-1.031,1.826-1.745,3.824-2.144,5.994
		c-0.253,0.797-0.588,1.321-1.003,1.574c-0.416,0.253-0.986,0.344-1.709,0.271l-2.658-0.435c0.47-3.29,1.374-6.22,2.712-8.788
		s3.038-4.738,5.1-6.51c2.062-1.772,4.449-3.12,7.161-4.043c2.713-0.922,5.643-1.383,8.789-1.383c2.929,0,5.723,0.426,8.381,1.275
		s5.009,2.134,7.053,3.852c2.043,1.718,3.662,3.87,4.855,6.455c1.193,2.586,1.79,5.615,1.79,9.088c0,2.894-0.443,5.578-1.329,8.056
		c-0.887,2.478-2.089,4.855-3.607,7.134s-3.282,4.494-5.289,6.646c-2.008,2.152-4.115,4.35-6.32,6.591l-24.033,24.521
		c1.157-0.289,2.36-0.506,3.608-0.65c1.247-0.145,2.504-0.217,3.77-0.217H1011.447z"/>
	<path display="inline" fill="#767676" d="M1079.421,496.453c0,6.727-0.724,12.551-2.17,17.469
		c-1.447,4.919-3.418,8.988-5.913,12.206c-2.496,3.22-5.417,5.615-8.762,7.188c-3.346,1.573-6.917,2.359-10.714,2.359
		c-3.798,0-7.36-0.786-10.688-2.359c-3.328-1.573-6.239-3.969-8.734-7.188c-2.495-3.218-4.458-7.287-5.886-12.206
		c-1.43-4.918-2.144-10.742-2.144-17.469s0.714-12.549,2.144-17.469c1.428-4.918,3.391-8.986,5.886-12.206
		c2.495-3.218,5.406-5.614,8.734-7.188c3.327-1.572,6.89-2.359,10.688-2.359c3.797,0,7.368,0.787,10.714,2.359
		c3.345,1.574,6.266,3.971,8.762,7.188c2.495,3.22,4.466,7.288,5.913,12.206C1078.697,483.904,1079.421,489.727,1079.421,496.453z
		 M1073.996,496.453c0-6.22-0.597-11.537-1.79-15.949c-1.194-4.412-2.794-8.02-4.802-10.822c-2.007-2.803-4.358-4.855-7.053-6.158
		c-2.694-1.302-5.524-1.953-8.489-1.953c-2.967,0-5.787,0.651-8.464,1.953c-2.677,1.303-5.027,3.355-7.052,6.158
		c-2.026,2.803-3.635,6.41-4.828,10.822c-1.194,4.412-1.791,9.729-1.791,15.949c0,6.258,0.597,11.582,1.791,15.977
		c1.193,4.395,2.802,7.994,4.828,10.796c2.024,2.804,4.375,4.847,7.052,6.13c2.677,1.285,5.497,1.926,8.464,1.926
		c2.965,0,5.795-0.641,8.489-1.926c2.694-1.283,5.046-3.326,7.053-6.13c2.008-2.802,3.607-6.401,4.802-10.796
		C1073.399,508.035,1073.996,502.711,1073.996,496.453z"/>
	<path display="inline" fill="#767676" d="M1137.467,530.848v4.015h-39.603v-4.015h17.632v-62.279c0-1.229,0.054-2.531,0.162-3.906
		l-16.926,15.027c-0.507,0.435-1.013,0.598-1.519,0.488c-0.507-0.107-0.904-0.324-1.193-0.65l-1.573-2.17l22.188-19.584h4.069
		v73.074H1137.467z"/>
	<path display="inline" fill="#767676" d="M1204.193,458.099v2.333c0,0.615-0.073,1.148-0.217,1.6
		c-0.146,0.453-0.308,0.842-0.488,1.167l-35.154,69.711c-0.29,0.579-0.678,1.05-1.166,1.411s-1.131,0.542-1.926,0.542h-3.581
		l35.479-69.44c0.47-0.939,1.031-1.79,1.682-2.549h-44.268c-0.398,0-0.742-0.145-1.031-0.435c-0.289-0.289-0.434-0.632-0.434-1.03
		v-3.31H1204.193z"/>
	<polygon display="inline" fill="#777777" points="255.764,397.781 253.895,394.549 247.273,383.1 234.813,404.643 224.545,422.395 
		241.529,422.395 	"/>
	<polygon display="inline" fill="#777777" points="243.808,377.108 234.688,361.338 199.369,422.396 217.613,422.396 	"/>
	<polygon display="inline" fill="#777777" points="268.353,376.012 217.613,288.292 199.369,288.292 234.688,349.355 
		234.689,349.351 247.276,371.112 247.277,371.11 259.232,391.784 	"/>
	<path display="inline" fill="#777777" d="M277.373,360.407c1.812-3.125,1.812-7.004,0.002-10.127l-35.846-61.989h-16.984
		l47.271,81.725L277.373,360.407z"/>
	<path display="inline" fill="#777777" d="M311.305,402.334v-91.077h27.857c13.907,0,25.078,4.198,33.518,12.593
		c8.438,8.395,12.657,19.379,12.657,32.946c0,13.654-4.22,24.657-12.657,33.009c-8.439,8.353-19.61,12.529-33.518,12.529H311.305z
		 M323.008,322.451v68.689h16.154c10.6,0,18.953-3.031,25.059-9.095c6.105-6.062,9.159-14.479,9.159-25.249
		c0-10.685-3.054-19.081-9.159-25.186c-6.105-6.106-14.459-9.159-25.059-9.159H323.008z"/>
	<path display="inline" fill="#777777" d="M423.241,404.369c-9.158,0-16.707-3.137-22.642-9.413
		c-5.937-6.275-8.904-14.203-8.904-23.787c0-9.496,2.882-17.405,8.649-23.723c5.767-6.317,13.144-9.477,22.134-9.477
		c9.242,0,16.6,2.989,22.069,8.968c5.47,5.978,8.204,14.354,8.204,25.123l-0.127,1.271h-48.973
		c0.169,6.106,2.203,11.025,6.105,14.756c3.899,3.731,8.564,5.597,13.992,5.597c7.462,0,13.313-3.731,17.554-11.194l10.431,5.088
		c-2.798,5.259-6.678,9.371-11.639,12.338C435.135,402.885,429.516,404.369,423.241,404.369 M404.543,363.664h35.743
		c-0.34-4.325-2.099-7.906-5.278-10.749c-3.181-2.84-7.441-4.261-12.784-4.261c-4.409,0-8.204,1.358-11.385,4.071
		C407.659,355.44,405.561,359.085,404.543,363.664"/>
	<polygon display="inline" fill="#777777" points="492.439,402.334 480.736,402.334 455.551,340.004 468.271,340.004 
		486.588,388.341 486.843,388.341 505.414,340.004 517.879,340.004 	"/>
	<polygon display="inline" fill="#777777" points="539.248,363.283 539.248,402.334 527.545,402.334 527.545,311.257 
		580.716,311.257 580.716,322.451 539.248,322.451 539.248,352.344 576.645,352.344 576.645,363.283 	"/>
	<path display="inline" fill="#777777" d="M616.076,404.369c-9.158,0-16.707-3.137-22.642-9.413
		c-5.937-6.275-8.904-14.203-8.904-23.787c0-9.496,2.882-17.405,8.649-23.723c5.767-6.317,13.144-9.477,22.134-9.477
		c9.242,0,16.6,2.989,22.069,8.968c5.47,5.978,8.204,14.354,8.204,25.123l-0.127,1.271h-48.974
		c0.17,6.106,2.205,11.025,6.106,14.756c3.899,3.731,8.564,5.597,13.992,5.597c7.462,0,13.313-3.731,17.554-11.194l10.43,5.088
		c-2.797,5.259-6.677,9.371-11.638,12.338C627.97,402.885,622.351,404.369,616.076,404.369 M597.378,363.664h35.743
		c-0.34-4.325-2.099-7.906-5.278-10.749c-3.181-2.84-7.442-4.261-12.784-4.261c-4.41,0-8.204,1.358-11.385,4.071
		C600.494,355.44,598.396,359.085,597.378,363.664"/>
	<path display="inline" fill="#777777" d="M704.607,385.034c0,5.428-2.375,10.007-7.123,13.738c-4.75,3.73-10.73,5.596-17.936,5.596
		c-6.277,0-11.788-1.633-16.537-4.896c-4.75-3.264-8.141-7.569-10.176-12.912l10.431-4.452c1.526,3.733,3.753,6.636,6.678,8.714
		c2.926,2.079,6.126,3.116,9.604,3.116c3.73,0,6.847-0.805,9.349-2.417c2.501-1.61,3.753-3.518,3.753-5.724
		c0-3.985-3.053-6.91-9.159-8.777l-10.685-2.671c-12.128-3.053-18.189-8.904-18.189-17.554c0-5.68,2.31-10.24,6.932-13.674
		c4.62-3.435,10.536-5.152,17.745-5.152c5.512,0,10.494,1.316,14.946,3.943c4.453,2.63,7.568,6.15,9.35,10.558l-10.43,4.325
		c-1.189-2.627-3.117-4.684-5.789-6.169c-2.671-1.483-5.66-2.226-8.968-2.226c-3.053,0-5.787,0.763-8.204,2.289
		c-2.417,1.527-3.625,3.394-3.625,5.597c0,3.562,3.348,6.106,10.049,7.632l9.413,2.417
		C698.416,369.388,704.607,375.621,704.607,385.034"/>
	<path display="inline" fill="#777777" d="M738.824,403.352c-5.088,0-9.307-1.568-12.656-4.708
		c-3.352-3.136-5.068-7.504-5.152-13.101v-34.854h-10.939v-10.685h10.939v-19.08h11.703v19.08h15.264v10.685h-15.264v31.038
		c0,4.156,0.805,6.976,2.416,8.458c1.611,1.485,3.436,2.227,5.471,2.227c0.932,0,1.844-0.105,2.734-0.318
		c0.891-0.211,1.717-0.487,2.48-0.827l3.689,10.43C746.457,402.799,742.895,403.352,738.824,403.352"/>
	<polygon display="inline" fill="#777777" points="842.873,363.028 842.873,372.695 819.85,372.695 819.85,395.719 810.182,395.719 
		810.182,372.695 787.158,372.695 787.158,363.028 810.182,363.028 810.182,340.004 819.85,340.004 819.85,363.028 	"/>
	<path display="inline" fill="#777777" d="M1015.141,402.334v-91.077h27.857c13.907,0,25.08,4.198,33.518,12.593
		s12.658,19.379,12.658,32.946c0,13.654-4.221,24.657-12.658,33.009c-8.438,8.353-19.61,12.529-33.518,12.529H1015.141z
		 M1026.844,322.451v68.689h16.154c10.6,0,18.953-3.031,25.059-9.095c6.105-6.062,9.16-14.479,9.16-25.249
		c0-10.685-3.055-19.081-9.16-25.186c-6.105-6.106-14.459-9.159-25.059-9.159H1026.844z"/>
	<path display="inline" fill="#777777" d="M1124.662,337.969c8.648,0,15.475,2.312,20.479,6.932
		c5.002,4.623,7.506,10.962,7.506,19.017v38.416h-11.195v-8.65h-0.508c-4.834,7.124-11.279,10.686-19.334,10.686
		c-6.869,0-12.615-2.035-17.236-6.106c-4.623-4.071-6.934-9.159-6.934-15.264c0-6.444,2.438-11.576,7.314-15.392
		c4.875-3.816,11.385-5.724,19.525-5.724c6.953,0,12.678,1.272,17.172,3.816v-2.671c0-4.071-1.611-7.525-4.832-10.367
		c-3.225-2.841-6.996-4.262-11.322-4.262c-6.531,0-11.703,2.757-15.518,8.269l-10.305-6.488
		C1105.156,342.041,1113.551,337.969,1124.662,337.969 M1109.523,383.253c0,3.053,1.293,5.597,3.881,7.632
		c2.586,2.035,5.617,3.053,9.094,3.053c4.918,0,9.307-1.823,13.166-5.47c3.857-3.645,5.787-7.928,5.787-12.847
		c-3.646-2.882-8.734-4.325-15.264-4.325c-4.75,0-8.713,1.144-11.893,3.435C1111.115,377.021,1109.523,379.862,1109.523,383.253"/>
	<polygon display="inline" fill="#777777" points="1220.318,340.004 1181.268,429.81 1169.182,429.81 1183.684,398.391 
		1157.988,340.004 1170.709,340.004 1189.281,384.779 1189.535,384.779 1207.598,340.004 	"/>
	<path display="inline" fill="#777777" d="M1001.16,343.731h-52.857v21.712h30.205c-1.303,7.015-5.256,12.959-11.199,16.935
		c-5.023,3.367-11.453,5.353-19.006,5.353c-14.613,0-26.986-9.866-31.402-23.135c-1.121-3.367-1.76-6.959-1.76-10.662
		c0-3.7,0.639-7.295,1.76-10.662c4.416-13.267,16.789-23.138,31.402-23.138c8.24,0,15.639,2.833,21.453,8.391l16.096-16.093
		c-9.719-9.058-22.422-14.618-37.549-14.618c-21.934,0-40.92,12.575-50.15,30.916c-3.801,7.578-5.969,16.148-5.969,25.204
		s2.168,17.623,5.969,25.204c9.23,18.342,28.217,30.916,50.15,30.916c15.152,0,27.854-5.023,37.146-13.597
		c10.607-9.768,16.734-24.157,16.734-41.247C1002.184,351.231,1001.818,347.404,1001.16,343.731"/>
</g>
<g id="Layer_3" display="none">
	<g display="inline">
		<path fill="#767676" d="M408.089,612.354v22.412c-3.148,2.229-6.505,3.937-10.069,5.124s-7.575,1.782-12.03,1.782
			c-4.99,0-9.477-0.765-13.456-2.295c-3.981-1.529-7.374-3.697-10.182-6.505c-2.807-2.808-4.961-6.2-6.461-10.181
			s-2.25-8.406-2.25-13.279c0-4.871,0.735-9.289,2.206-13.255c1.47-3.966,3.579-7.353,6.327-10.159
			c2.747-2.807,6.066-4.975,9.958-6.506c3.892-1.529,8.272-2.294,13.145-2.294c2.406,0,4.626,0.163,6.661,0.49
			c2.034,0.327,3.928,0.81,5.681,1.448s3.387,1.426,4.901,2.361s2.97,2.013,4.366,3.23l-1.247,1.961
			c-0.416,0.713-1.04,0.876-1.871,0.49c-0.446-0.179-1.085-0.595-1.916-1.248c-0.832-0.653-1.976-1.337-3.431-2.05
			c-1.456-0.713-3.261-1.352-5.414-1.916c-2.154-0.563-4.775-0.847-7.864-0.847c-4.1,0-7.805,0.654-11.117,1.961
			s-6.134,3.179-8.466,5.613c-2.332,2.437-4.129,5.407-5.392,8.912c-1.263,3.506-1.894,7.441-1.894,11.807
			c0,4.428,0.631,8.407,1.894,11.941c1.263,3.535,3.09,6.535,5.481,9.001c2.391,2.466,5.294,4.353,8.71,5.659
			s7.263,1.96,11.541,1.96c1.871,0,3.601-0.118,5.19-0.356c1.589-0.237,3.104-0.572,4.545-1.002c1.44-0.431,2.836-0.965,4.188-1.604
			c1.352-0.639,2.725-1.358,4.121-2.161v-16.977H391.87c-0.327,0-0.601-0.104-0.824-0.312c-0.223-0.208-0.334-0.445-0.334-0.713
			v-2.495H408.089z"/>
		<path fill="#767676" d="M422.169,617.032v0.847c0,3.326,0.386,6.253,1.158,8.777c0.772,2.525,1.872,4.642,3.298,6.35
			s3.147,2.992,5.168,3.854c2.02,0.862,4.277,1.293,6.772,1.293c2.229,0,4.159-0.246,5.793-0.736
			c1.633-0.489,3.008-1.039,4.121-1.648c1.114-0.607,1.998-1.158,2.651-1.648s1.129-0.734,1.426-0.734
			c0.386,0,0.683,0.148,0.892,0.445l1.158,1.426c-0.713,0.891-1.656,1.723-2.829,2.495c-1.174,0.772-2.481,1.434-3.922,1.983
			c-1.44,0.549-2.985,0.987-4.634,1.314c-1.648,0.326-3.305,0.489-4.968,0.489c-3.03,0-5.792-0.527-8.287-1.581
			c-2.496-1.055-4.635-2.592-6.417-4.612c-1.782-2.02-3.156-4.493-4.121-7.419c-0.966-2.926-1.448-6.274-1.448-10.047
			c0-3.179,0.453-6.111,1.359-8.801c0.905-2.688,2.212-5.004,3.921-6.95c1.708-1.945,3.802-3.468,6.282-4.567
			c2.479-1.099,5.295-1.648,8.443-1.648c2.495,0,4.813,0.432,6.951,1.292c2.139,0.862,3.995,2.116,5.569,3.765
			s2.814,3.676,3.721,6.082c0.905,2.406,1.359,5.169,1.359,8.288c0,0.653-0.09,1.099-0.268,1.337
			c-0.179,0.238-0.476,0.356-0.892,0.356H422.169z M451.755,614.314c0-2.377-0.334-4.508-1.003-6.395
			c-0.668-1.886-1.611-3.482-2.829-4.789c-1.219-1.307-2.667-2.311-4.345-3.008s-3.527-1.047-5.547-1.047
			c-2.288,0-4.338,0.355-6.149,1.068s-3.379,1.738-4.7,3.074c-1.322,1.338-2.384,2.941-3.186,4.813
			c-0.803,1.871-1.337,3.966-1.604,6.283H451.755z"/>
		<path fill="#767676" d="M484.682,595.912c3.179,0,6.022,0.543,8.533,1.627c2.51,1.084,4.626,2.621,6.35,4.611
			c1.722,1.99,3.036,4.389,3.942,7.195s1.359,5.949,1.359,9.424c0,3.476-0.453,6.609-1.359,9.402
			c-0.906,2.792-2.221,5.184-3.942,7.173c-1.724,1.991-3.84,3.521-6.35,4.589c-2.511,1.07-5.354,1.604-8.533,1.604
			s-6.022-0.534-8.532-1.604c-2.511-1.068-4.634-2.598-6.372-4.589c-1.737-1.989-3.06-4.381-3.965-7.173
			c-0.906-2.793-1.359-5.927-1.359-9.402c0-3.475,0.453-6.617,1.359-9.424c0.905-2.807,2.228-5.205,3.965-7.195
			c1.738-1.99,3.861-3.527,6.372-4.611C478.659,596.455,481.503,595.912,484.682,595.912z M484.682,638.196
			c2.644,0,4.953-0.452,6.929-1.358s3.624-2.206,4.946-3.898c1.321-1.693,2.309-3.736,2.963-6.127
			c0.653-2.391,0.98-5.072,0.98-8.043c0-2.94-0.327-5.613-0.98-8.02c-0.654-2.406-1.642-4.463-2.963-6.172
			c-1.322-1.707-2.971-3.021-4.946-3.943c-1.976-0.92-4.285-1.381-6.929-1.381s-4.953,0.461-6.928,1.381
			c-1.977,0.922-3.625,2.236-4.946,3.943c-1.322,1.709-2.317,3.766-2.985,6.172s-1.003,5.079-1.003,8.02
			c0,2.971,0.335,5.652,1.003,8.043s1.663,4.434,2.985,6.127c1.321,1.692,2.97,2.992,4.946,3.898
			C479.729,637.744,482.038,638.196,484.682,638.196z"/>
		<path fill="#767676" d="M520.907,607.318c0.683-1.811,1.462-3.423,2.339-4.834c0.876-1.41,1.886-2.607,3.03-3.587
			c1.143-0.98,2.42-1.729,3.831-2.25c1.411-0.52,2.979-0.78,4.701-0.78c0.92,0,1.827,0.082,2.718,0.246
			c0.892,0.163,1.678,0.453,2.361,0.868l-0.356,2.94c-0.148,0.476-0.431,0.713-0.847,0.713c-0.356,0-0.898-0.104-1.626-0.312
			c-0.729-0.208-1.687-0.312-2.874-0.312c-1.723,0-3.245,0.26-4.566,0.779c-1.322,0.52-2.511,1.3-3.565,2.34
			c-1.055,1.039-1.976,2.324-2.762,3.854c-0.788,1.53-1.508,3.291-2.161,5.28v28.694h-4.277v-44.334h2.272
			c0.504,0,0.86,0.104,1.069,0.313c0.207,0.207,0.341,0.564,0.4,1.068L520.907,607.318z"/>
		<path fill="#767676" d="M582.35,598.586v1.47c0,0.653-0.416,1.056-1.247,1.203l-6.772,0.49c0.831,1.13,1.47,2.392,1.915,3.787
			c0.446,1.397,0.669,2.911,0.669,4.545c0,2.139-0.379,4.077-1.137,5.815c-0.757,1.736-1.826,3.223-3.208,4.455
			c-1.381,1.232-3.045,2.191-4.99,2.874c-1.945,0.684-4.092,1.024-6.438,1.024c-2.525,0-4.827-0.386-6.906-1.158
			c-1.247,0.713-2.235,1.553-2.963,2.518c-0.729,0.965-1.092,1.924-1.092,2.873c0,1.278,0.453,2.258,1.359,2.941
			c0.905,0.684,2.094,1.181,3.564,1.492c1.471,0.313,3.148,0.513,5.035,0.602c1.886,0.09,3.81,0.187,5.77,0.29
			c1.961,0.104,3.884,0.29,5.771,0.558c1.886,0.267,3.564,0.734,5.035,1.402c1.47,0.669,2.657,1.604,3.564,2.808
			c0.905,1.203,1.358,2.8,1.358,4.79c0,1.842-0.461,3.609-1.381,5.303c-0.921,1.692-2.25,3.191-3.988,4.5
			c-1.737,1.307-3.839,2.354-6.305,3.141s-5.229,1.182-8.287,1.182c-3.119,0-5.853-0.32-8.199-0.959s-4.314-1.5-5.903-2.584
			c-1.59-1.084-2.785-2.34-3.587-3.766s-1.203-2.939-1.203-4.545c0-2.346,0.772-4.359,2.317-6.037
			c1.544-1.678,3.653-2.992,6.327-3.943c-1.486-0.504-2.682-1.239-3.587-2.205c-0.906-0.965-1.359-2.279-1.359-3.943
			c0-0.623,0.118-1.277,0.356-1.961c0.237-0.683,0.594-1.358,1.069-2.027c0.475-0.668,1.055-1.299,1.738-1.893
			c0.683-0.594,1.455-1.129,2.316-1.604c-2.109-1.218-3.75-2.837-4.923-4.856c-1.174-2.02-1.761-4.381-1.761-7.085
			c0-2.139,0.379-4.077,1.137-5.814c0.757-1.737,1.834-3.23,3.23-4.478c1.396-1.248,3.066-2.213,5.013-2.896
			c1.944-0.684,4.105-1.025,6.482-1.025c1.961,0,3.766,0.238,5.414,0.713c1.648,0.477,3.126,1.145,4.434,2.006H582.35z
			 M577.716,643.944c0-1.396-0.364-2.518-1.092-3.364c-0.728-0.846-1.7-1.508-2.918-1.982c-1.219-0.475-2.622-0.809-4.211-1.003
			c-1.589-0.192-3.253-0.334-4.99-0.423c-1.737-0.09-3.483-0.178-5.235-0.268c-1.753-0.089-3.401-0.268-4.946-0.535
			c-1.129,0.446-2.168,0.959-3.118,1.537c-0.951,0.58-1.769,1.241-2.451,1.983c-0.684,0.743-1.218,1.552-1.604,2.429
			c-0.387,0.875-0.58,1.818-0.58,2.829c0,1.307,0.335,2.517,1.003,3.632c0.668,1.113,1.648,2.078,2.94,2.896
			c1.293,0.817,2.874,1.463,4.746,1.938c1.871,0.475,4.024,0.713,6.46,0.713c2.258,0,4.359-0.253,6.305-0.758
			c1.945-0.506,3.639-1.219,5.08-2.139c1.44-0.921,2.568-2.02,3.386-3.297S577.716,645.459,577.716,643.944z M561.141,621.354
			c1.9,0,3.594-0.273,5.08-0.824c1.484-0.549,2.732-1.314,3.742-2.295c1.01-0.979,1.782-2.152,2.317-3.52
			c0.534-1.365,0.802-2.881,0.802-4.545c0-1.663-0.275-3.186-0.824-4.566c-0.55-1.382-1.337-2.563-2.361-3.543
			c-1.025-0.98-2.272-1.737-3.743-2.271c-1.471-0.535-3.142-0.803-5.013-0.803s-3.542,0.268-5.013,0.803
			c-1.47,0.534-2.718,1.291-3.742,2.271c-1.025,0.98-1.805,2.161-2.34,3.543c-0.534,1.381-0.802,2.903-0.802,4.566
			c0,1.664,0.268,3.18,0.802,4.545c0.535,1.367,1.314,2.54,2.34,3.52c1.024,0.98,2.272,1.746,3.742,2.295
			C557.599,621.08,559.27,621.354,561.141,621.354z"/>
		<path fill="#767676" d="M593.089,617.032v0.847c0,3.326,0.386,6.253,1.158,8.777c0.772,2.525,1.872,4.642,3.298,6.35
			s3.147,2.992,5.168,3.854c2.02,0.862,4.277,1.293,6.772,1.293c2.229,0,4.159-0.246,5.793-0.736
			c1.633-0.489,3.008-1.039,4.121-1.648c1.114-0.607,1.998-1.158,2.651-1.648s1.129-0.734,1.426-0.734
			c0.386,0,0.683,0.148,0.892,0.445l1.158,1.426c-0.713,0.891-1.656,1.723-2.829,2.495c-1.174,0.772-2.481,1.434-3.922,1.983
			c-1.44,0.549-2.985,0.987-4.634,1.314c-1.648,0.326-3.305,0.489-4.968,0.489c-3.03,0-5.792-0.527-8.287-1.581
			c-2.496-1.055-4.635-2.592-6.417-4.612c-1.782-2.02-3.156-4.493-4.121-7.419c-0.966-2.926-1.448-6.274-1.448-10.047
			c0-3.179,0.453-6.111,1.359-8.801c0.905-2.688,2.212-5.004,3.921-6.95c1.708-1.945,3.802-3.468,6.282-4.567
			c2.479-1.099,5.295-1.648,8.443-1.648c2.495,0,4.813,0.432,6.951,1.292c2.139,0.862,3.995,2.116,5.569,3.765
			s2.814,3.676,3.721,6.082c0.905,2.406,1.359,5.169,1.359,8.288c0,0.653-0.09,1.099-0.268,1.337
			c-0.179,0.238-0.476,0.356-0.892,0.356H593.089z M622.675,614.314c0-2.377-0.334-4.508-1.003-6.395
			c-0.668-1.886-1.611-3.482-2.829-4.789c-1.219-1.307-2.667-2.311-4.345-3.008s-3.527-1.047-5.547-1.047
			c-2.288,0-4.338,0.355-6.149,1.068s-3.379,1.738-4.7,3.074c-1.322,1.338-2.384,2.941-3.186,4.813
			c-0.803,1.871-1.337,3.966-1.604,6.283H622.675z"/>
		<path fill="#767676" d="M702.565,581.787h-22.145v59.172h-4.59v-59.172h-22.278v-3.876h49.013V581.787z"/>
		<path fill="#767676" d="M717.624,595.912c3.179,0,6.022,0.543,8.533,1.627c2.51,1.084,4.626,2.621,6.35,4.611
			c1.722,1.99,3.036,4.389,3.942,7.195s1.359,5.949,1.359,9.424c0,3.476-0.453,6.609-1.359,9.402
			c-0.906,2.792-2.221,5.184-3.942,7.173c-1.724,1.991-3.84,3.521-6.35,4.589c-2.511,1.07-5.354,1.604-8.533,1.604
			s-6.022-0.534-8.532-1.604c-2.511-1.068-4.634-2.598-6.372-4.589c-1.737-1.989-3.06-4.381-3.965-7.173
			c-0.906-2.793-1.359-5.927-1.359-9.402c0-3.475,0.453-6.617,1.359-9.424c0.905-2.807,2.228-5.205,3.965-7.195
			c1.738-1.99,3.861-3.527,6.372-4.611C711.602,596.455,714.445,595.912,717.624,595.912z M717.624,638.196
			c2.644,0,4.953-0.452,6.929-1.358s3.624-2.206,4.946-3.898c1.321-1.693,2.309-3.736,2.963-6.127
			c0.653-2.391,0.98-5.072,0.98-8.043c0-2.94-0.327-5.613-0.98-8.02c-0.654-2.406-1.642-4.463-2.963-6.172
			c-1.322-1.707-2.971-3.021-4.946-3.943c-1.976-0.92-4.285-1.381-6.929-1.381s-4.953,0.461-6.928,1.381
			c-1.977,0.922-3.625,2.236-4.946,3.943c-1.322,1.709-2.317,3.766-2.985,6.172s-1.003,5.079-1.003,8.02
			c0,2.971,0.335,5.652,1.003,8.043s1.663,4.434,2.985,6.127c1.321,1.692,2.97,2.992,4.946,3.898
			C712.671,637.744,714.98,638.196,717.624,638.196z"/>
		<path fill="#767676" d="M807.853,596.625l-14.793,44.334h-3.163c-0.506,0-0.847-0.313-1.025-0.936l-12.119-36.002
			c-0.149-0.445-0.282-0.891-0.401-1.337c-0.119-0.445-0.223-0.892-0.312-1.337c-0.149,0.892-0.372,1.783-0.668,2.674
			l-12.298,36.002c-0.179,0.623-0.535,0.936-1.069,0.936h-3.03l-14.793-44.334h3.208c0.416,0,0.758,0.111,1.025,0.334
			s0.445,0.469,0.534,0.735l11.184,34.978c0.179,0.684,0.342,1.344,0.49,1.982s0.268,1.27,0.356,1.894
			c0.179-0.624,0.356-1.255,0.535-1.894c0.178-0.639,0.386-1.299,0.624-1.982l11.852-35.289c0.208-0.653,0.624-0.98,1.248-0.98
			h1.737c0.653,0,1.084,0.327,1.292,0.98l11.764,35.289c0.207,0.684,0.4,1.336,0.579,1.96c0.178,0.624,0.341,1.247,0.49,1.872
			c0.118-0.625,0.245-1.248,0.378-1.872c0.134-0.624,0.305-1.276,0.513-1.96l11.273-34.978c0.118-0.327,0.312-0.586,0.579-0.78
			c0.267-0.192,0.579-0.289,0.936-0.289H807.853z"/>
		<path fill="#767676" d="M821.442,604.378c2.049-2.554,4.418-4.604,7.106-6.149c2.688-1.543,5.681-2.316,8.979-2.316
			c2.435,0,4.581,0.387,6.438,1.158c1.855,0.773,3.393,1.887,4.611,3.342c1.218,1.456,2.139,3.209,2.763,5.258
			c0.624,2.05,0.936,4.367,0.936,6.951v28.338h-4.277v-28.338c0-4.158-0.951-7.419-2.852-9.78c-1.901-2.362-4.798-3.542-8.688-3.542
			c-2.882,0-5.577,0.734-8.087,2.205c-2.511,1.471-4.746,3.514-6.706,6.127v33.328h-4.277v-44.334h2.361
			c0.742,0,1.173,0.371,1.292,1.113L821.442,604.378z"/>
		<path fill="#767676" d="M927.574,636.949c0.476,0,0.847,0.141,1.114,0.423s0.401,0.646,0.401,1.092v2.495h-40.681v-1.516
			c0-0.326,0.081-0.66,0.245-1.002c0.163-0.341,0.379-0.631,0.646-0.869l21.521-21.788c1.782-1.812,3.431-3.564,4.945-5.257
			c1.516-1.693,2.83-3.401,3.943-5.125c1.114-1.723,1.983-3.49,2.606-5.302c0.624-1.812,0.937-3.743,0.937-5.792
			c0-2.317-0.387-4.33-1.159-6.038s-1.797-3.111-3.074-4.21c-1.277-1.1-2.763-1.916-4.455-2.451
			c-1.693-0.535-3.446-0.803-5.258-0.803c-1.991,0-3.825,0.306-5.503,0.914c-1.679,0.609-3.164,1.455-4.456,2.539
			c-1.292,1.086-2.361,2.377-3.208,3.877s-1.434,3.142-1.76,4.924c-0.208,0.654-0.483,1.084-0.824,1.292
			c-0.342,0.208-0.81,0.282-1.403,0.223l-2.184-0.356c0.386-2.703,1.129-5.108,2.228-7.218c1.099-2.108,2.495-3.892,4.188-5.347
			s3.653-2.563,5.882-3.32c2.228-0.757,4.634-1.136,7.218-1.136c2.406,0,4.701,0.35,6.884,1.047
			c2.184,0.698,4.114,1.753,5.793,3.163c1.678,1.412,3.008,3.18,3.987,5.303c0.98,2.125,1.471,4.611,1.471,7.463
			c0,2.377-0.364,4.583-1.092,6.617c-0.729,2.035-1.715,3.988-2.963,5.859s-2.695,3.691-4.345,5.458
			c-1.648,1.768-3.379,3.572-5.19,5.413l-19.738,20.141c0.95-0.238,1.938-0.416,2.963-0.535c1.024-0.118,2.057-0.178,3.097-0.178
			H927.574z"/>
		<path fill="#767676" d="M983.404,609.412c0,5.525-0.595,10.309-1.782,14.348c-1.188,4.041-2.808,7.383-4.857,10.025
			c-2.049,2.645-4.448,4.611-7.195,5.904c-2.748,1.292-5.682,1.938-8.8,1.938c-3.119,0-6.046-0.646-8.778-1.938
			c-2.733-1.293-5.124-3.26-7.174-5.904c-2.049-2.643-3.661-5.984-4.834-10.025c-1.174-4.039-1.76-8.822-1.76-14.348
			c0-5.524,0.586-10.307,1.76-14.347c1.173-4.039,2.785-7.381,4.834-10.025c2.05-2.644,4.44-4.611,7.174-5.903
			c2.732-1.293,5.659-1.938,8.778-1.938c3.118,0,6.052,0.646,8.8,1.938c2.747,1.292,5.146,3.26,7.195,5.903
			c2.05,2.645,3.669,5.986,4.857,10.025C982.81,599.105,983.404,603.888,983.404,609.412z M978.948,609.412
			c0-5.107-0.49-9.475-1.471-13.1c-0.979-3.623-2.294-6.586-3.943-8.889c-1.648-2.301-3.579-3.988-5.792-5.057
			c-2.213-1.07-4.538-1.604-6.973-1.604c-2.437,0-4.753,0.534-6.951,1.604c-2.199,1.068-4.129,2.756-5.793,5.057
			c-1.663,2.303-2.984,5.266-3.965,8.889c-0.98,3.625-1.471,7.992-1.471,13.1c0,5.141,0.49,9.514,1.471,13.123
			s2.302,6.564,3.965,8.866c1.664,2.303,3.594,3.981,5.793,5.035c2.198,1.055,4.515,1.581,6.951,1.581
			c2.435,0,4.76-0.526,6.973-1.581c2.213-1.054,4.144-2.732,5.792-5.035c1.649-2.302,2.964-5.257,3.943-8.866
			C978.458,618.926,978.948,614.553,978.948,609.412z"/>
		<path fill="#767676" d="M1031.078,637.662v3.297h-32.526v-3.297h14.481v-51.151c0-1.01,0.044-2.079,0.134-3.208l-13.902,12.342
			c-0.416,0.356-0.832,0.49-1.247,0.401c-0.417-0.089-0.743-0.268-0.98-0.534l-1.292-1.783l18.224-16.084h3.342v60.018H1031.078z"/>
		<path fill="#767676" d="M1085.882,577.911v1.916c0,0.505-0.06,0.943-0.178,1.314c-0.119,0.372-0.253,0.69-0.401,0.958
			l-28.873,57.256c-0.238,0.475-0.557,0.861-0.958,1.158c-0.4,0.297-0.929,0.445-1.581,0.445h-2.941l29.141-57.033
			c0.386-0.771,0.847-1.47,1.381-2.094h-36.358c-0.327,0-0.609-0.118-0.847-0.356c-0.238-0.237-0.356-0.519-0.356-0.847v-2.718
			H1085.882z"/>
	</g>
	<polygon display="inline" fill="#FFC107" points="430.958,309.624 416.126,283.964 380.518,345.525 411.006,345.525 
		431.363,310.322 	"/>
	<polygon display="inline" fill="#0F9D58" points="400.082,256.225 416.126,283.964 380.518,345.525 348.428,345.525 	"/>
	<polygon display="inline" fill="#4285F4" points="380.518,166.927 348.428,166.927 431.363,310.322 447.396,282.597 
		447.408,282.568 	"/>
	<path display="inline" fill="#EA4335" d="M457.803,264.594c3.002-5.176,3.002-11.563,0-16.74l-46.797-80.927h-30.488
		l66.889,115.641L457.803,264.594z"/>
	<path display="inline" fill="#777777" d="M502.181,319.724V196.635h37.649c18.796,0,33.896,5.672,45.3,17.021
		c11.403,11.343,17.106,26.189,17.106,44.525c0,18.453-5.703,33.322-17.106,44.61c-11.404,11.29-26.504,16.933-45.3,16.933H502.181z
		 M517.999,211.762v92.835h21.832c14.326,0,25.615-4.098,33.867-12.293c8.252-8.189,12.378-19.566,12.378-34.123
		c0-14.44-4.126-25.789-12.378-34.038c-8.252-8.255-19.541-12.381-33.867-12.381H517.999z"/>
	<path display="inline" fill="#777777" d="M653.464,322.475c-12.377,0-22.58-4.238-30.6-12.722
		c-8.025-8.479-12.034-19.194-12.034-32.147c0-12.835,3.895-23.521,11.689-32.062c7.793-8.537,17.764-12.807,29.913-12.807
		c12.492,0,22.436,4.039,29.826,12.118c7.393,8.079,11.089,19.401,11.089,33.955l-0.172,1.716h-66.186
		c0.228,8.254,2.978,14.902,8.252,19.943c5.269,5.045,11.574,7.563,18.908,7.563c10.086,0,17.993-5.04,23.726-15.127l14.097,6.879
		c-3.781,7.104-9.025,12.664-15.731,16.675C669.538,320.468,661.944,322.475,653.464,322.475 M628.194,267.463H676.5
		c-0.46-5.847-2.837-10.685-7.134-14.528c-4.299-3.838-10.057-5.758-17.277-5.758c-5.961,0-11.088,1.834-15.387,5.501
		C632.404,256.349,629.569,261.275,628.194,267.463"/>
	<polygon display="inline" fill="#777777" points="746.985,319.724 731.171,319.724 697.13,235.488 714.321,235.488 
		739.079,300.814 739.421,300.814 764.522,235.488 781.368,235.488 	"/>
	<polygon display="inline" fill="#777777" points="810.247,266.948 810.247,319.724 794.433,319.724 794.433,196.635 
		866.29,196.635 866.29,211.762 810.247,211.762 810.247,252.163 860.79,252.163 860.79,266.948 	"/>
	<path display="inline" fill="#777777" d="M914.081,322.475c-12.377,0-22.578-4.238-30.6-12.722
		c-8.023-8.479-12.035-19.194-12.035-32.147c0-12.835,3.896-23.521,11.691-32.062c7.791-8.537,17.762-12.807,29.912-12.807
		c12.49,0,22.434,4.039,29.83,12.118c7.389,8.079,11.086,19.401,11.086,33.955l-0.172,1.716h-66.188
		c0.23,8.254,2.98,14.902,8.252,19.943c5.27,5.045,11.574,7.563,18.91,7.563c10.086,0,17.992-5.04,23.725-15.127l14.096,6.879
		c-3.779,7.104-9.025,12.664-15.729,16.675C930.155,320.468,922.56,322.475,914.081,322.475 M888.81,267.463h48.309
		c-0.459-5.847-2.838-10.685-7.135-14.528c-4.297-3.838-10.057-5.758-17.277-5.758c-5.961,0-11.09,1.834-15.387,5.501
		C893.022,256.349,890.185,261.275,888.81,267.463"/>
	<path display="inline" fill="#777777" d="M1033.731,296.345c0,7.335-3.211,13.523-9.629,18.566
		c-6.418,5.042-14.5,7.563-24.238,7.563c-8.484,0-15.93-2.207-22.35-6.617c-6.418-4.41-11.002-10.23-13.752-17.449l14.098-6.017
		c2.061,5.043,5.072,8.971,9.023,11.775c3.953,2.81,8.279,4.213,12.98,4.213c5.043,0,9.252-1.088,12.635-3.268
		c3.381-2.176,5.074-4.754,5.074-7.736c0-5.386-4.127-9.34-12.381-11.861l-14.439-3.611c-16.393-4.125-24.584-12.035-24.584-23.723
		c0-7.679,3.121-13.84,9.369-18.481c6.246-4.642,14.238-6.962,23.982-6.962c7.447,0,14.182,1.777,20.201,5.328
		c6.014,3.554,10.229,8.311,12.635,14.27l-14.1,5.846c-1.604-3.551-4.209-6.333-7.818-8.338c-3.611-2.004-7.65-3.01-12.123-3.01
		c-4.125,0-7.82,1.033-11.086,3.094c-3.27,2.063-4.9,4.587-4.9,7.565c0,4.814,4.525,8.252,13.582,10.314l12.719,3.267
		C1025.362,275.2,1033.731,283.623,1033.731,296.345"/>
	<path display="inline" fill="#777777" d="M1079.976,321.101c-6.879,0-12.58-2.121-17.105-6.36
		c-4.527-4.238-6.852-10.144-6.963-17.708v-47.105h-14.785v-14.439h14.785v-25.786h15.814v25.786h20.633v14.439h-20.633v41.949
		c0,5.616,1.092,9.427,3.27,11.432c2.172,2.007,4.641,3.008,7.389,3.008c1.262,0,2.496-0.142,3.699-0.43
		c1.201-0.283,2.32-0.659,3.352-1.118l4.984,14.097C1090.288,320.354,1085.478,321.101,1079.976,321.101"/>
	<polygon display="inline" fill="#777777" points="423.727,454.018 423.727,467.082 392.611,467.082 392.611,498.199 
		379.544,498.199 379.544,467.082 348.428,467.082 348.428,454.018 379.544,454.018 379.544,422.902 392.611,422.902 
		392.611,454.018 	"/>
	<path display="inline" fill="#777777" d="M664.256,507.137V384.05h37.651c18.797,0,33.895,5.671,45.299,17.018
		c11.402,11.348,17.107,26.189,17.107,44.527c0,18.453-5.705,33.322-17.107,44.611c-11.404,11.287-26.502,16.93-45.299,16.93
		H664.256z M680.074,399.177v92.833h21.833c14.326,0,25.615-4.096,33.867-12.291c8.252-8.191,12.379-19.568,12.379-34.123
		c0-14.439-4.127-25.787-12.379-34.041c-8.252-8.252-19.541-12.377-33.867-12.377H680.074z"/>
	<path display="inline" fill="#777777" d="M812.276,420.15c11.688,0,20.914,3.123,27.676,9.369
		c6.762,6.248,10.145,14.814,10.145,25.703v51.914h-15.131v-11.689h-0.686c-6.533,9.629-15.244,14.441-26.131,14.441
		c-9.283,0-17.049-2.752-23.293-8.252c-6.25-5.5-9.373-12.377-9.373-20.629c0-8.709,3.295-15.645,9.887-20.801
		c6.588-5.156,15.387-7.734,26.389-7.734c9.396,0,17.135,1.717,23.207,5.156v-3.611c0-5.5-2.176-10.168-6.531-14.01
		c-4.355-3.838-9.453-5.76-15.303-5.76c-8.824,0-15.814,3.727-20.969,11.174l-13.928-8.768
		C785.915,425.654,797.259,420.15,812.276,420.15 M791.817,481.352c0,4.127,1.746,7.564,5.244,10.316
		c3.496,2.75,7.592,4.125,12.289,4.125c6.646,0,12.58-2.463,17.795-7.393c5.215-4.926,7.82-10.717,7.82-17.363
		c-4.926-3.895-11.805-5.846-20.629-5.846c-6.42,0-11.775,1.547-16.072,4.643C793.966,472.928,791.817,476.768,791.817,481.352"/>
	<polygon display="inline" fill="#777777" points="941.556,422.902 888.778,544.273 872.444,544.273 892.044,501.809 
		857.315,422.902 874.509,422.902 899.61,483.414 899.952,483.414 924.364,422.902 	"/>
	<path display="inline" fill="#4285F4" d="M645.394,443.453c0-5.377-0.496-10.553-1.382-15.514h-71.437v29.344h40.818
		c-1.76,9.479-7.102,17.514-15.135,22.887v19.025h24.518C637.113,485.994,645.394,466.549,645.394,443.453"/>
	<path display="inline" fill="#34A853" d="M572.576,517.574c20.475,0,37.642-6.791,50.201-18.379l-24.518-19.025
		c-6.789,4.551-15.479,7.234-25.684,7.234c-19.751,0-36.477-13.334-42.441-31.268h-25.341v19.656
		C517.271,500.578,542.931,517.574,572.576,517.574"/>
	<path display="inline" fill="#FBBC05" d="M530.134,456.139c-1.516-4.553-2.38-9.406-2.38-14.41c0-5.002,0.864-9.859,2.38-14.41
		v-19.654h-25.341c-5.136,10.242-8.064,21.826-8.064,34.064c0,12.24,2.929,23.816,8.064,34.064L530.134,456.139z"/>
	<path display="inline" fill="#EA4335" d="M572.576,396.048c11.136,0,21.133,3.828,28.992,11.34l21.751-21.75
		c-13.133-12.243-30.302-19.758-50.743-19.758c-29.645,0-55.305,16.997-67.782,41.783l25.341,19.656
		C536.099,409.389,552.825,396.048,572.576,396.048"/>
</g>
</svg>
